<?xml version="1.0" encoding="UTF-8"?>
<!DOCTYPE svg PUBLIC "-//W3C//DTD SVG 1.1//EN" "http://www.w3.org/Graphics/SVG/1.1/DTD/svg11.dtd">
<!-- Creator: CorelDRAW -->
<svg xmlns="http://www.w3.org/2000/svg" xml:space="preserve" width="192.02mm" height="192.02mm" version="1.1" style="shape-rendering:geometricPrecision; text-rendering:geometricPrecision; image-rendering:optimizeQuality; fill-rule:evenodd; clip-rule:evenodd"
viewBox="0 0 19202 19202"
 xmlns:xlink="http://www.w3.org/1999/xlink"
 xmlns:xodm="http://www.corel.com/coreldraw/odm/2003">
 <defs>
  <style type="text/css">
   <![CDATA[
    .str2 {stroke:#DBF868;stroke-width:26.46;stroke-miterlimit:22.9256}
    .str3 {stroke:#DBF868;stroke-width:24.29;stroke-miterlimit:22.9256}
    .str4 {stroke:#DBF868;stroke-width:22.13;stroke-miterlimit:22.9256}
    .str1 {stroke:#DBF868;stroke-width:52.92;stroke-miterlimit:22.9256}
    .str5 {stroke:#DBF868;stroke-width:19.97;stroke-miterlimit:22.9256}
    .str0 {stroke:black;stroke-width:20;stroke-miterlimit:22.9256}
    .str6 {stroke:#DBF868;stroke-width:17.81;stroke-miterlimit:22.9256}
    .fil1 {fill:none}
    .fil0 {fill:#004222}
    .fil2 {fill:#DBF868}
   ]]>
  </style>
   <clipPath id="id0">
    <path d="M9601 3394.21l3246.09 2358.42 3246.11 2358.43 -1239.91 3816 -1239.89 3816.01 -4012.39 0 -4012.39 0 -1239.89 -3816.01 -1239.91 -3816 3246.11 -2358.43 3246.09 -2358.42 -0.02 0z"/>
   </clipPath>
 </defs>
 <g id="Camada_x0020_1">
  <metadata id="CorelCorpID_0Corel-Layer"/>
  <rect class="fil0 str0" x="242.86" y="250.52" width="18702.02" height="18702.02" rx="3240" ry="3240"/>
  <polygon class="fil0" points="9601,3394.21 12847.09,5752.63 16093.19,8111.05 14853.28,11927.06 13613.39,15743.07 9601,15743.07 5588.62,15743.07 4348.72,11927.06 3108.82,8111.05 6354.91,5752.63 "/>
  <g>
  </g>
  <g style="clip-path:url(#id0)">
   <g id="_2367764169520">
    <path id="_1" class="fil1 str1" d="M11102 3168.16c-613.63,494.86 -1155.5,1076.33 -1613.25,1719.65 -180.63,254.85 -341.47,618.58 -136.09,851.16 56.9,61.87 131.14,103.93 195.47,158.36 348.88,291.97 282.07,838.8 153.4,1276.75 -39.58,133.62 -84.12,272.17 -188.04,368.68 -155.89,143.51 -388.48,141.03 -593.84,188.04 -447.86,101.45 -801.69,455.27 -1242.12,588.89 -158.35,47.01 -326.61,66.81 -477.54,131.14 -408.26,173.21 -616.11,623.53 -759.62,1044.17 -98.97,291.97 -185.57,608.68 -91.55,900.65 61.86,193 197.95,353.83 331.56,509.71 358.78,418.16 727.46,846.22 1212.42,1101.07 366.2,193 821.48,274.66 1190.15,89.08 64.33,-32.17 128.66,-76.7 165.78,-138.56 89.08,-145.98 7.42,-331.57 -49.49,-494.88 -98.97,-289.49 -98.97,-640.84 101.45,-873.43 244.96,-284.54 670.54,-294.44 1046.64,-306.82 301.87,-9.89 611.16,-39.58 878.39,-183.09 264.74,-143.52 475.07,-425.58 447.85,-727.46 -39.59,-437.95 -551.77,-811.57 -390.94,-1222.31 42.06,-111.35 131.14,-197.95 230.11,-264.75 197.95,-131.14 435.48,-180.63 670.54,-207.84 376.1,-42.07 757.15,-24.75 1133.24,-74.24 376.1,-49.49 757.15,-170.73 1021.9,-440.43 583.94,-596.32 373.61,-1620.68 796.73,-2340.72 168.25,-284.54 423.11,-504.75 628.47,-764.56 205.37,-259.8 361.26,-596.31 274.66,-913.02"/>
    <path class="fil1 str2" d="M8182.3 9344.06c-32.17,47.01 -56.91,101.45 -54.43,158.35 2.47,56.91 34.63,113.82 89.07,133.62 84.13,27.21 160.83,-44.54 230.11,-98.97 155.89,-123.72 334.03,-89.07 497.33,-173.2 111.35,-59.38 84.14,-143.52 0,-215.27 -240,-205.38 -611.14,-29.7 -762.08,195.47z"/>
    <path class="fil1 str2" d="M9389.77 8997.65c-131.14,-103.93 -296.92,-175.68 -455.27,-195.47 -51.96,-7.43 -103.93,-4.95 -153.4,4.94 -111.35,19.8 -215.28,74.24 -319.19,136.09 -111.34,66.82 -225.16,113.82 -334.04,178.16 -103.92,59.38 -190.52,133.61 -249.9,237.53 -64.34,113.82 -74.24,244.96 -39.59,363.73 2.47,12.37 7.42,24.75 12.37,37.12 47.01,128.66 145.98,249.9 264.75,314.23 145.98,79.18 329.09,32.17 403.31,-133.62 34.64,-79.17 56.91,-158.35 116.29,-222.69 79.18,-86.6 197.95,-98.97 306.82,-111.34 106.39,-14.85 217.74,-24.74 319.18,-66.81 89.08,-37.12 155.88,-103.92 205.37,-180.63 84.13,-126.18 49.5,-262.26 -76.7,-361.24z"/>
    <path class="fil1 str2" d="M9840.1 8849.19c-190.52,-145.98 -442.9,-264.75 -677.97,-301.86 -81.65,-12.38 -155.88,-9.9 -227.64,4.95 -168.26,32.16 -316.72,123.71 -467.64,220.21 -163.31,106.39 -336.51,165.77 -507.25,252.39 -160.83,81.64 -294.44,183.09 -378.56,343.92 -98.97,185.58 -98.97,398.37 -24.75,588.89 7.43,19.8 17.32,39.59 24.75,59.39 91.55,197.95 257.33,381.05 442.9,497.34 207.84,131.14 497.33,111.34 574.04,-165.78 37.11,-133.62 47.01,-272.18 128.66,-386 111.34,-155.88 301.87,-165.78 475.07,-185.57 168.25,-17.32 343.93,-32.17 499.81,-103.93 138.57,-64.33 237.54,-178.15 291.97,-316.72 69.3,-180.62 9.92,-381.04 -153.39,-507.23z"/>
    <path class="fil1 str2" d="M10287.95 8698.27c-252.38,-190.53 -588.89,-356.31 -900.64,-408.27 -108.88,-17.31 -207.85,-14.85 -304.35,4.95 -222.7,44.54 -415.69,173.2 -616.1,304.34 -217.74,143.52 -447.86,215.27 -680.44,326.61 -215.27,103.93 -398.37,235.06 -509.71,452.81 -131.13,257.33 -121.24,551.77 -9.9,811.58 12.38,27.21 24.75,54.43 37.13,81.64 136.08,269.71 371.15,514.66 618.58,680.44 272.17,180.63 668.07,190.52 747.24,-197.95 39.59,-185.58 37.12,-386 143.52,-551.77 143.51,-222.7 405.78,-232.6 643.32,-257.34 230.11,-22.26 467.64,-39.58 680.44,-141.03 188.04,-91.55 326.61,-249.91 378.56,-452.81 64.32,-235.05 -24.75,-499.8 -227.65,-653.2z"/>
    <path class="fil1 str2" d="M9233.89 8037.61c-277.12,56.91 -517.14,220.23 -767.04,390.95 -269.71,183.1 -559.2,267.23 -853.64,400.84 -272.18,123.71 -499.81,284.55 -638.38,559.2 -165.78,331.56 -143.51,705.18 4.95,1036.74 173.2,383.52 502.27,727.45 846.21,964.99 336.51,232.59 836.33,269.71 920.46,-230.11 39.58,-240.01 27.21,-499.81 158.35,-715.09 175.67,-291.97 509.71,-301.86 811.57,-329.08 291.97,-27.22 593.84,-47.01 861.07,-180.63 237.54,-118.77 418.16,-324.13 467.64,-588.89 51.96,-291.98 -66.81,-621.05 -306.81,-799.2 -314.24,-235.06 -734.87,-445.38 -1123.34,-514.66 -138.56,-24.75 -262.27,-19.8 -381.04,4.94z"/>
    <path class="fil1 str2" d="M11945.74 3123.62c-556.71,480.02 -1219.83,913.03 -1593.45,1566.24 -197.96,343.94 -170.73,677.98 -138.57,1054.07 37.12,452.8 -22.27,880.86 -56.91,1331.19 -12.37,150.94 12.37,319.18 121.25,423.11 272.18,262.28 732.41,74.24 1026.85,-32.17 608.68,-220.22 1239.62,-197.94 1855.74,-361.25 447.86,-121.24 806.63,-428.05 1034.27,-828.89 257.32,-457.76 353.82,-999.64 539.39,-1492.03 188.05,-497.34 702.71,-955.09 724.98,-1499.44"/>
    <path class="fil1 str2" d="M11869.04 3561.57c-361.25,291.97 -660.64,655.71 -873.44,1066.44 -84.12,160.83 -155.88,329.08 -185.57,507.23 -54.44,321.66 29.69,655.71 -29.69,974.89 -27.22,136.09 -79.19,269.71 -91.56,408.26 -14.85,138.56 19.8,294.44 131.14,378.57 69.28,51.96 160.83,69.28 249.91,66.81 254.85,-4.95 482.5,-141.03 720.03,-230.11 524.56,-197.95 1155.5,-185.58 1563.78,-574.04 183.09,-173.2 294.44,-408.26 388.47,-640.85 316.72,-786.84 492.39,-1645.43 969.94,-2348.14"/>
    <path class="fil1 str2" d="M12413.4 3470.02c-160.83,145.98 -309.29,304.34 -447.85,470.12 -66.82,79.19 -133.62,190.52 -81.66,279.6 34.64,59.38 108.88,81.66 175.67,98.98 197.96,51.95 398.37,103.92 596.32,155.88 170.72,44.54 346.41,89.07 519.62,64.33 222.69,-34.64 415.68,-183.1 546.82,-366.2 133.62,-183.1 215.27,-395.89 291.97,-606.21 14.85,-42.07 22.27,-101.45 -19.8,-116.29"/>
    <path class="fil1 str2" d="M11277.68 5283.7c-9.89,141.04 39.59,279.6 59.38,420.64 22.27,158.35 4.95,321.66 -49.48,472.59 -34.64,91.55 -81.66,195.47 -39.59,284.54 49.49,108.88 205.36,123.72 311.77,74.24 108.87,-49.49 190.52,-143.51 287.03,-210.32 279.59,-190.53 660.64,-143.52 969.93,-279.6 524.57,-227.64 566.63,-823.95 153.41,-1182.73 -269.71,-235.05 -843.75,-210.32 -1162.93,-126.19 -252.4,64.34 -509.72,264.75 -529.52,546.83z"/>
    <path class="fil1 str2" d="M11836.88 5429.68c9.9,47.02 34.64,89.08 39.59,138.57 4.94,49.49 -14.85,103.93 2.48,148.46 22.26,54.44 89.07,79.18 148.45,74.24 59.38,-4.95 113.83,-34.65 168.26,-54.44 155.89,-56.91 326.61,-76.7 393.42,-249.91 47.01,-123.71 22.27,-291.97 -89.07,-376.1 -212.8,-160.83 -732.42,4.95 -663.13,319.18z"/>
    <path class="fil1 str2" d="M12660.83 3531.88c-76.7,34.64 -133.62,106.4 -165.78,185.58 -32.17,79.18 -44.54,163.31 -51.96,247.43 -2.48,34.64 -7.42,69.28 7.43,101.45 12.37,27.21 34.63,47.01 59.38,64.32 225.17,168.26 554.25,175.68 796.74,32.18 242.47,-143.51 393.41,-423.11 400.84,-705.18"/>
    <path class="fil1 str1" d="M22367.58 7612.03c-861.06,509.72 -1922.54,702.72 -2885.06,430.54 -386,-108.87 -784.36,-289.49 -1167.88,-178.15 -272.17,79.18 -484.96,294.44 -757.14,373.62 -195.47,56.91 -405.8,39.59 -611.16,49.5 -418.17,17.31 -841.27,160.83 -1130.77,462.69 -289.5,299.4 -415.69,771.99 -247.43,1153.04 64.33,143.51 163.31,267.22 222.69,410.73 197.95,470.13 -39.58,1093.66 299.4,1474.7 96.5,108.88 232.58,180.63 326.61,289.5 170.72,197.95 188.04,480.02 197.95,739.82 7.42,215.27 2.47,460.23 -155.89,606.21 -193,175.68 -494.86,106.39 -744.77,32.17 -697.76,-207.85 -1410.37,-368.68 -2132.87,-460.23 -450.32,-56.91 -1002.1,-39.59 -1232.21,351.36 -220.22,378.57 -27.23,952.61 -366.21,1229.73 -121.24,98.98 -282.07,128.67 -435.48,145.98 -977.36,98.98 -1932.45,-289.49 -2912.29,-368.67 -457.75,-37.11 -1007.04,44.54 -1212.42,455.27 -143.51,284.55 -69.27,621.05 -29.69,937.77 39.59,314.25 9.9,690.34 -252.38,868.49"/>
    <path class="fil1 str1" d="M2417.13 12224.18c254.86,163.31 586.42,202.89 873.44,103.92 287.02,-98.97 522.08,-336.5 618.59,-623.53 111.33,-326.61 47.01,-685.4 69.27,-1029.32 37.12,-648.27 371.16,-1234.69 648.28,-1823.58 277.12,-586.41 507.24,-1252.01 329.09,-1875.54 -188.05,-660.65 -786.85,-1118.4 -1400.47,-1430.16 -437.95,-222.69 -927.87,-420.63 -1190.16,-836.32"/>
    <path class="fil1 str1" d="M17933.6 3568.99c-89.07,393.42 -341.46,729.93 -487.44,1106.02 -145.98,376.11 -150.94,868.5 168.26,1118.41 190.52,148.46 450.32,170.72 692.81,173.2 499.81,4.95 999.63,-51.97 1484.59,-170.73 715.09,-170.73 1452.43,-472.59 2157.62,-267.22"/>
    <path class="fil1 str2" d="M20098.63 8621.56c-576.52,-133.62 -1192.62,-450.33 -1724.61,-190.52 -116.28,56.9 -220.21,138.56 -336.5,197.94 -249.91,126.2 -541.88,136.09 -819,180.63 -393.42,64.34 -811.57,244.97 -964.99,613.64 -94.03,227.64 -69.28,482.5 -39.58,724.98 32.17,254.85 71.75,507.24 118.76,759.61 42.07,230.11 91.55,465.18 210.32,668.08 163.31,277.12 440.44,467.64 724.98,613.63 1088.71,564.15 2464.43,616.1 3525.9,0 692.81,-400.85 1212.42,-1098.6 1410.37,-1875.54 133.62,-529.5 244.96,-1751.82 -554.25,-1739.45 -539.41,12.35 -1004.59,173.18 -1551.41,47l0.01 0z"/>
    <path class="fil1 str2" d="M21271.46 8950.64c-423.12,4.94 -804.16,126.19 -1249.54,34.64 -465.17,-96.5 -962.51,-329.09 -1393.04,-126.19 -94.02,44.54 -180.63,108.87 -274.65,155.88 -202.9,98.97 -437.96,111.35 -658.17,153.41 -316.71,59.38 -650.75,210.32 -776.93,502.28 -79.19,180.63 -64.34,386 -42.07,583.94 24.74,207.85 59.39,413.21 103.93,616.11 39.58,185.58 89.07,371.15 190.52,531.97 138.56,217.74 363.73,363.74 593.84,480.02 170.72,84.13 351.36,153.41 536.93,207.85 767.04,222.69 1620.68,175.67 2313.49,-217.75 566.62,-321.66 994.68,-898.18 1150.55,-1526.65 108.87,-445.37 170.74,-1400.46 -494.86,-1395.51z"/>
    <path class="fil1 str2" d="M20895.36 9319.32c-311.77,0 -606.21,84.12 -952.62,27.21 -353.82,-59.38 -729.93,-207.84 -1061.48,-59.38 -74.23,32.17 -138.57,76.7 -210.32,111.34 -158.36,74.23 -334.04,89.07 -497.34,126.19 -242.48,54.44 -489.92,173.2 -588.89,390.94 -61.86,136.09 -59.38,289.49 -44.54,440.43 17.31,160.83 47,319.19 91.55,472.59 39.59,141.04 86.6,277.12 170.73,395.89 113.82,155.89 284.55,262.29 462.69,343.93 131.15,59.39 269.71,108.88 410.75,145.98 586.41,155.89 1232.21,123.72 1761.71,-168.26 440.43,-242.47 779.41,-695.27 893.24,-1177.78 84.13,-353.8 96.5,-1049.08 -435.48,-1049.08z"/>
    <path class="fil1 str2" d="M20521.74 9690.46c-197.95,-2.47 -410.75,42.07 -653.22,19.8 -240.02,-22.26 -499.82,-86.59 -729.93,4.95 -51.96,19.8 -98.97,47.02 -148.46,69.28 -111.34,47.01 -227.64,66.81 -338.99,98.97 -165.77,49.49 -326.6,138.57 -400.83,279.6 -47.02,91.55 -54.45,195.47 -47.02,299.4 7.42,113.81 34.64,225.16 76.71,329.09 37.11,94.01 84.12,183.09 153.4,257.32 89.08,96.51 207.84,160.84 334.04,210.33 91.55,34.64 188.05,64.33 284.54,86.59 403.32,89.08 843.75,71.76 1209.94,-116.28 316.72,-160.84 561.67,-494.87 633.43,-831.37 56.93,-272.2 24.76,-702.73 -373.61,-707.68z"/>
    <path class="fil1 str2" d="M18863.95 10563.9c0,126.2 86.59,240.02 195.47,304.35 108.87,64.33 237.54,86.6 363.72,98.97 222.7,22.26 455.28,22.26 660.65,-66.81 368.67,-158.36 606.21,-806.63 61.86,-841.27 -324.14,-19.79 -1279.22,74.22 -1281.7,504.76z"/>
    <path class="fil1 str2" d="M11906.16 16442.89c309.29,-225.16 477.54,-601.27 549.3,-977.35 71.76,-376.1 61.86,-762.1 94.03,-1143.15 22.27,-249.91 69.27,-514.66 242.48,-697.76 267.23,-279.6 675.49,-274.66 1029.32,-207.84 529.51,101.45 1039.21,304.34 1496.96,588.89 183.11,111.34 368.68,225.16 576.52,274.65 247.44,59.38 507.25,-9.89 702.72,-168.25 165.78,-136.09 252.38,-334.05 383.52,-497.35 138.56,-168.25 321.66,-274.65 536.92,-311.76 574.04,-96.51 1093.66,252.38 1660.27,242.48 489.93,-9.89 903.14,-284.55 1378.2,-366.2 497.34,-84.12 945.19,86.6 1234.69,507.25 242.48,351.35 324.13,779.41 442.9,1182.72 108.87,371.15 309.29,695.28 559.2,987.26 269.7,316.71 529.51,638.38 846.22,915.5"/>
    <path class="fil1 str2" d="M12475.25 16220.2c225.17,-197.95 338.98,-494.87 408.26,-786.84 69.28,-291.97 106.4,-593.84 220.21,-873.44 113.83,-277.12 321.67,-539.4 613.64,-616.11 267.23,-71.75 551.77,19.81 791.79,155.89 240.01,136.08 455.27,314.24 702.71,435.48 240.01,118.77 504.76,180.64 732.4,319.19 309.3,185.58 534.46,504.76 603.74,856.11 71.75,353.83 -14.85,734.88 -227.65,1024.38"/>
    <path class="fil1 str2" d="M13029.5 16170.71c101.45,-291.97 202.89,-586.41 301.86,-878.38 74.23,-212.8 158.35,-442.91 343.93,-571.58 170.73,-118.77 398.37,-128.66 598.78,-76.7 200.43,51.96 381.05,163.31 559.2,269.7 212.8,128.67 423.12,257.34 635.91,388.48 98.96,59.38 197.95,121.24 272.17,207.84 195.47,227.64 150.93,621.05 -91.55,801.68"/>
    <path class="fil1 str2" d="M13801.48 16242.46c12.37,-212.78 29.69,-440.43 160.83,-611.15 180.63,-235.06 534.46,-282.08 809.11,-168.26 98.97,42.06 193,103.92 247.43,195.47 59.39,98.97 64.33,220.22 64.33,334.03 0,222.7 -19.79,442.91 -51.95,663.12"/>
    <path class="fil1 str2" d="M17757.93 5001.62c0,175.68 64.33,358.79 202.89,465.18 89.08,66.81 197.96,98.97 306.82,118.77 922.93,180.63 1845.84,-235.05 2771.24,-403.31 232.59,-42.07 480.02,-74.24 668.07,-217.74 269.71,-202.89 343.93,-576.52 346.41,-913.02 2.48,-205.37 -17.32,-418.17 -118.77,-593.84 -86.59,-150.94 -225.16,-264.75 -376.1,-353.83 -338.98,-200.44 -737.35,-282.08 -1133.24,-316.73 -445.38,-39.58 -895.7,-22.26 -1336.13,51.97 -274.66,47.01 -621.05,89.07 -796.73,334.03 -133.62,185.58 -153.41,450.33 -212.8,665.59 -103.92,376.11 -324.14,764.57 -321.66,1162.93z"/>
    <path class="fil1 str2" d="M21296.2 3217.64c-259.8,-155.88 -566.62,-225.16 -868.49,-252.38 -19.8,-2.48 -42.06,-2.48 -61.86,-4.95 -363.72,-27.21 -732.4,-7.43 -1093.65,56.91 -225.16,39.58 -507.24,79.17 -653.22,279.6 -111.35,153.4 -128.67,366.19 -180.63,541.87 -64.33,220.22 -175.67,447.86 -235.06,677.97 -22.27,91.56 -37.12,185.58 -37.12,279.6 2.48,143.52 54.44,294.44 168.26,383.52 71.76,54.44 160.83,79.18 249.91,98.96 155.88,29.7 311.77,39.6 465.17,34.65 598.79,-19.8 1197.57,-254.86 1796.37,-371.16 190.52,-37.11 390.94,-64.32 544.35,-180.63 220.21,-165.77 279.6,-467.64 289.49,-742.29 4.95,-158.36 0,-321.67 -64.33,-465.18 -4.95,-12.37 -9.9,-22.26 -17.32,-34.64 -64.33,-126.18 -178.15,-225.14 -301.87,-301.85z"/>
    <path class="fil1 str2" d="M21031.45 3331.45c-202.9,-126.19 -442.9,-175.67 -680.44,-193 -14.85,0 -32.17,-2.47 -47.01,-2.47 -282.08,-17.32 -569.09,4.94 -848.69,61.85 -175.68,34.64 -393.42,69.29 -507.25,225.17 -89.07,118.77 -106.38,284.55 -148.46,420.64 -54.43,173.2 -145.98,348.87 -190.52,531.97 -17.32,74.24 -29.69,145.98 -27.21,220.22 2.48,113.82 44.54,232.58 133.62,301.86 56.9,42.06 126.19,61.86 193,76.7 121.25,24.75 242.49,32.18 361.25,27.22 465.17,-14.85 930.35,-197.96 1393.04,-294.44 145.98,-29.7 301.87,-54.44 420.64,-145.98 170.72,-131.14 217.73,-361.26 232.58,-574.04 9.89,-126.2 12.37,-257.34 -32.17,-373.63 -2.48,-9.89 -7.43,-19.79 -12.37,-27.21 -51.96,-106.4 -138.57,-193 -240.01,-254.86z"/>
    <path class="fil1 str2" d="M20766.7 3445.28c-143.51,-94.03 -321.66,-126.2 -489.93,-133.62 -12.37,0 -22.26,0 -34.63,0 -200.42,-4.95 -405.79,17.32 -606.21,66.8 -126.2,29.7 -279.6,59.39 -363.73,170.74 -66.81,86.59 -84.13,202.89 -118.77,296.92 -44.54,123.7 -113.82,252.37 -145.98,385.98 -12.37,54.45 -22.26,108.88 -19.79,160.83 2.47,84.14 32.16,168.26 98.96,220.23 39.59,29.69 89.08,44.54 138.56,54.43 86.61,17.32 170.74,24.74 257.34,19.8 334.03,-9.9 663.12,-141.04 989.73,-220.22 103.92,-24.74 210.32,-44.54 296.92,-111.34 121.25,-94.03 155.88,-254.86 175.67,-403.32 12.37,-94.02 24.74,-193 -2.48,-284.54 -2.48,-7.43 -4.95,-14.85 -7.43,-22.27 -29.66,-79.18 -91.53,-150.94 -168.23,-200.42z"/>
    <path class="fil1 str2" d="M20504.42 3559.1c-86.6,-61.87 -197.95,-79.19 -301.87,-74.24 -7.42,0 -14.85,0 -19.79,0 -118.77,4.95 -242.49,32.17 -363.74,71.76 -76.7,24.75 -165.78,51.96 -217.73,116.28 -42.06,51.97 -61.86,118.77 -86.6,175.68 -34.64,76.7 -81.65,153.41 -103.92,237.53 -7.43,34.65 -12.38,69.28 -12.38,103.93 2.48,51.96 22.27,106.4 64.33,138.57 24.75,17.32 51.96,27.21 81.66,34.63 49.48,12.38 101.44,14.86 153.4,12.38 200.42,-4.95 393.42,-86.6 583.94,-143.52 59.39,-17.31 121.25,-34.63 170.73,-74.23 71.75,-56.91 96.5,-148.46 118.77,-232.59 17.32,-64.33 39.58,-128.66 29.69,-195.47 0,-4.94 -2.48,-9.89 -2.48,-14.85 -9.88,-61.84 -42.06,-118.74 -94.01,-155.86z"/>
    <path class="fil1 str2" d="M19871 3851.07c-24.75,27.21 -49.5,56.9 -59.39,91.55 -9.89,34.65 -2.48,76.71 27.21,101.45 19.8,14.85 49.5,19.8 74.24,19.8 116.29,-2.48 215.26,-81.65 289.49,-170.72 27.21,-32.18 51.96,-64.34 61.86,-103.93 9.89,-39.59 4.95,-86.61 -27.21,-113.83 -29.69,-27.21 -74.23,-29.69 -111.34,-14.85 -79.19,27.22 -195.48,128.66 -254.86,190.53z"/>
    <path class="fil1 str2" d="M9582.76 10984.54c-101.44,235.06 19.8,499.81 34.65,754.67 17.32,306.81 -133.62,621.05 -386,796.74 -225.16,155.88 -504.76,205.36 -757.15,306.81 -252.39,103.92 -504.76,304.34 -517.13,579 -9.9,193 108.87,376.09 267.22,492.38 155.89,113.83 346.42,173.2 534.46,222.69 739.82,195.48 1506.86,284.55 2271.43,267.23 94.03,-2.48 190.53,-4.95 279.6,-34.64 291.97,-91.55 450.32,-405.79 534.46,-697.76 86.59,-294.44 143.51,-613.64 351.35,-836.32 158.35,-168.26 388.48,-264.75 514.66,-457.75 79.18,-121.24 108.87,-267.23 111.34,-410.74 7.43,-351.36 -138.56,-705.18 -395.89,-947.67 -378.57,-356.29 -875.91,-403.31 -1365.82,-385.99 -418.16,12.37 -1261.9,-146 -1477.18,351.35z"/>
    <path class="fil1 str2" d="M12074.41 11296.3c-301.86,-267.23 -695.28,-309.29 -1081.27,-294.44 -336.51,14.85 -987.27,-91.55 -1148.1,306.81 -74.23,185.58 19.8,393.42 34.64,593.83 4.95,56.92 0,113.83 -7.42,170.74 -32.17,183.09 -133.62,353.82 -282.07,462.69 -173.21,126.2 -390.95,170.73 -588.9,254.86 -170.73,71.75 -341.46,193 -403.31,361.25 -12.37,37.11 -22.27,74.23 -22.27,113.82 -7.42,158.35 91.55,309.29 217.74,403.31 121.24,89.08 267.22,136.08 413.2,173.21 571.58,153.41 1165.42,227.64 1756.77,205.36 76.71,-2.48 153.41,-7.43 225.17,-32.17 232.58,-76.71 363.72,-326.61 433.01,-564.15 51.95,-173.2 86.59,-358.77 168.25,-517.13 29.69,-56.91 64.33,-108.87 106.39,-155.88 123.72,-136.09 304.35,-217.74 405.8,-373.63 64.33,-98.97 91.56,-217.73 96.5,-336.5 14.86,-289.48 -103.91,-578.98 -324.13,-771.98z"/>
    <path class="fil1 str2" d="M11725.53 11573.43c-225.17,-175.67 -512.18,-215.27 -799.2,-200.42 -254.86,12.38 -712.61,-42.07 -819,259.8 -47.01,138.56 22.26,287.02 37.11,433 4.95,42.08 2.48,84.14 -2.48,123.72 -19.79,133.62 -89.07,259.8 -193,343.94 -121.25,96.49 -277.12,136.08 -420.63,202.89 -131.14,59.38 -267.23,150.94 -316.72,282.08 -9.89,27.21 -17.32,56.9 -17.32,89.07 -4.94,123.71 71.76,242.48 170.73,316.72 84.13,64.33 188.04,96.5 289.49,126.19 400.85,113.82 823.95,168.26 1239.64,143.51 56.9,-2.48 113.81,-9.89 168.26,-29.69 175.67,-64.32 277.12,-249.91 329.08,-428.06 39.59,-131.14 64.33,-269.71 123.72,-390.94 22.27,-42.06 47.01,-84.13 76.7,-118.76 89.08,-106.4 220.22,-173.21 296.92,-289.5 51.96,-76.7 76.71,-170.73 84.13,-262.28 24.76,-230.12 -61.86,-455.29 -247.43,-601.27z"/>
    <path class="fil1 str2" d="M11376.66 11853.02c-143.52,-91.55 -331.57,-121.25 -514.67,-108.88 -173.2,12.38 -440.43,7.43 -489.91,212.8 -22.27,89.07 22.26,180.62 37.11,274.65 4.95,27.21 4.95,51.96 2.48,79.18 -4.95,86.6 -44.54,168.25 -103.93,227.64 -69.27,69.28 -163.31,103.92 -252.38,150.94 -91.56,47.01 -193,108.87 -230.11,205.36 -7.43,19.8 -12.37,42.06 -12.37,64.34 -2.48,89.07 51.95,175.67 123.71,230.1 49.49,37.12 108.88,59.39 168.26,76.71 232.59,71.75 482.49,106.39 724.98,79.18 39.58,-4.95 76.7,-12.37 113.82,-27.21 116.29,-49.49 190.52,-170.73 227.64,-294.44 27.21,-89.08 39.58,-183.1 76.7,-264.75 12.37,-29.69 29.69,-56.91 47.01,-81.66 54.43,-74.23 136.09,-128.66 188.04,-205.36 37.13,-54.43 59.39,-121.25 69.29,-188.04 29.7,-173.23 -22.27,-334.06 -175.67,-430.56z"/>
    <path class="fil1 str2" d="M10634.36 12281.08c4.95,51.95 37.11,96.5 47.01,145.98 14.85,79.18 -34.64,158.35 -98.98,205.37 -51.95,37.11 -118.77,66.8 -141.03,126.18 -24.74,64.34 12.37,138.57 66.81,180.64 71.76,56.9 170.73,74.23 254.85,47.01 86.6,-27.21 155.89,-98.97 183.11,-185.57 14.85,-44.56 14.85,-94.03 29.69,-138.57 19.79,-61.87 59.38,-113.82 98.97,-168.26 81.64,-116.29 128.66,-316.71 -49.5,-363.73 -121.23,-29.67 -405.78,-49.47 -390.93,150.95z"/>
    <path class="fil1 str2" d="M12863.73 7923.79c-277.12,32.18 -564.15,84.13 -759.62,289.5 -450.33,472.59 -17.33,1536.55 299.39,1986.88 173.21,247.43 403.32,447.85 579,690.34 148.46,202.89 242.48,447.86 289.49,692.8 47.02,237.54 32.17,462.7 193.01,665.6 207.84,259.8 536.93,338.98 838.79,433.01 368.68,116.29 749.73,215.26 1140.67,197.94 247.43,-12.37 519.61,-143.51 527.03,-423.11 4.95,-242.48 -165.78,-415.69 -299.4,-596.32 -158.36,-212.78 -230.11,-428.06 -249.91,-692.8 -32.16,-428.06 -64.33,-727.46 -316.71,-1088.71 -173.2,-247.43 -254.86,-531.97 -254.86,-833.85 2.48,-252.39 81.66,-504.76 116.29,-754.67 59.38,-420.63 -44.54,-799.2 -531.98,-762.1 -527.03,37.14 -1049.12,133.63 -1571.19,195.49z"/>
    <path class="fil1 str2" d="M12881.04 8344.43c-393.43,160.83 -685.4,450.32 -576.52,905.6 59.38,247.44 202.89,499.82 371.15,687.87 123.71,136.08 287.02,252.39 467.65,304.34 237.53,66.81 487.44,17.32 727.45,9.89 126.19,-2.48 252.39,17.32 378.57,-2.48 84.13,-12.37 165.78,-42.06 227.65,-98.96 190.52,-170.73 128.66,-445.38 96.49,-668.08 -27.21,-193 -17.32,-388.47 2.48,-578.99 17.32,-168.26 71.76,-343.93 29.69,-509.71 -51.96,-212.79 -264.74,-316.71 -467.64,-338.99 -430.55,-49.47 -861.08,128.68 -1256.97,289.51z"/>
    <path class="fil1 str2" d="M14291.4 8586.91c-49.5,-148.46 -197.96,-220.22 -343.94,-235.06 -314.23,-32.17 -626,101.45 -903.13,227.65 -123.71,56.9 -232.58,131.14 -306.81,227.63 -89.08,116.29 -126.19,262.29 -79.18,440.44 47.01,178.14 150.94,358.78 274.65,494.86 89.08,98.97 207.85,183.11 338.99,222.7 160.83,49.49 331.56,29.69 497.33,19.8 12.38,0 24.75,-2.48 34.64,-2.48 91.56,-4.95 185.58,4.94 274.65,-12.37 59.39,-12.38 116.29,-37.12 160.83,-79.19 128.67,-126.19 84.14,-324.13 56.92,-487.44 -22.28,-141.03 -17.33,-282.08 -7.43,-420.63 9.9,-131.15 42.07,-267.23 2.48,-395.91z"/>
    <path class="fil1 str2" d="M13967.26 8779.91c-42.06,-84.12 -128.66,-126.19 -220.21,-131.14 -193,-14.85 -386,74.24 -544.35,165.78 -71.75,42.07 -131.14,94.02 -168.26,155.88 -44.54,76.71 -59.38,165.79 -27.21,272.18 32.17,111.34 101.44,220.22 178.15,304.34 56.9,61.87 128.66,113.82 207.84,141.04 98.97,37.12 207.85,34.64 314.24,27.22 7.43,0 14.85,0 22.27,-2.48 59.38,-4.95 116.29,-7.43 170.72,-24.75 34.64,-12.38 66.81,-32.17 91.56,-61.86 66.81,-84.13 39.59,-202.9 19.8,-304.35 -17.33,-86.6 -19.8,-175.67 -17.33,-259.8 4.95,-98.96 17.33,-195.46 -27.22,-282.06z"/>
    <path class="fil1 str2" d="M13331.36 9131.27c-2.48,37.12 9.89,71.76 27.21,103.92 37.12,71.77 91.56,131.14 160.83,170.73 39.6,22.27 84.14,39.59 131.14,37.12 44.55,-4.95 91.56,-37.12 98.98,-81.65 12.37,-66.81 -42.07,-155.89 -47.01,-225.17 -4.95,-61.86 0,-123.71 -54.44,-165.78 -111.34,-81.65 -309.28,34.64 -316.71,160.83z"/>
    <path class="fil1 str2" d="M14509.14 10430.28c-235.06,12.38 -504.76,54.45 -722.5,145.98 -101.45,42.07 -195.46,108.88 -252.39,202.91 -101.44,168.25 -71.75,403.31 -54.43,591.35 17.32,205.36 64.33,415.69 165.78,596.32 145.98,257.34 420.63,390.94 687.86,487.44 193,69.28 395.89,116.29 601.26,128.66 197.95,9.9 494.87,42.06 608.69,-163.31 81.66,-148.46 2.48,-311.77 -86.6,-437.95 -136.09,-193 -244.95,-410.74 -296.92,-640.85 -27.21,-121.24 -39.58,-244.96 -34.63,-368.68 4.94,-118.76 17.31,-235.05 -51.96,-338.98 -113.83,-170.71 -331.57,-215.26 -564.16,-202.89z"/>
    <path class="fil1 str2" d="M14043.97 11041.45c-47.01,37.11 -98.97,71.75 -128.66,128.65 -51.96,101.45 -34.64,235.06 -19.8,346.42 14.85,113.82 44.54,227.63 103.92,326.6 84.13,138.57 240.02,212.79 388.48,262.29 111.34,37.11 225.16,56.9 338.98,56.9 111.34,0 272.17,4.94 336.51,-111.35 44.54,-79.17 7.42,-165.77 -37.12,-235.05 -66.81,-103.93 -116.29,-222.7 -143.51,-346.41 -12.38,-64.33 -19.81,-131.13 -14.86,-197.95 2.48,-64.32 2.48,-123.71 -27.21,-183.09 -69.28,-138.57 -193,-202.9 -341.46,-207.85 -155.87,-9.9 -324.13,56.92 -455.27,160.84z"/>
    <path class="fil1 str2" d="M14301.3 11509.09c-4.95,51.96 -9.9,106.39 9.9,153.41 22.26,51.95 74.23,89.07 131.14,94.02 56.9,4.95 113.81,-27.22 143.51,-74.24 24.74,-42.06 29.69,-91.55 29.69,-141.03 0,-272.17 -284.55,-309.28 -314.24,-32.16z"/>
    <path class="fil1 str2" d="M7652.79 16168.24c29.7,-150.94 54.44,-306.82 39.59,-460.23 -19.8,-212.79 -111.34,-425.58 -51.96,-630.96 61.87,-215.26 279.6,-353.82 499.82,-388.46 220.21,-34.65 445.38,17.31 660.64,71.75 539.41,138.56 1076.33,299.39 1633.05,343.93 376.11,29.69 757.15,7.42 1130.78,-37.12 150.94,-17.32 321.66,-34.64 435.48,66.81 111.34,98.97 118.77,277.13 61.86,418.16 -56.9,138.57 -160.83,252.39 -249.91,373.63 -101.44,138.56 -183.09,291.97 -242.47,452.8"/>
    <path class="fil1 str2" d="M7880.44 16183.08c44.54,-190.53 56.9,-386 34.63,-581.46 -17.32,-150.94 -51.95,-316.72 29.69,-442.9 56.91,-89.08 158.35,-138.57 262.28,-153.41 103.93,-14.85 210.32,0 311.77,19.8 457.75,86.59 903.13,235.05 1358.4,343.93 455.28,106.39 930.35,170.72 1388.1,81.65 69.27,-12.38 145.98,-29.7 207.84,4.95 89.08,49.48 101.45,178.15 61.87,272.17 -39.59,94.02 -116.29,165.78 -170.74,252.38 -61.85,96.51 -96.49,212.8 -96.49,326.61"/>
    <path class="fil1 str2" d="M8244.16 16168.24c2.48,-160.84 -34.64,-326.62 -2.48,-484.97 108.88,-534.45 908.08,-202.89 1224.8,-103.92 343.93,106.39 700.23,170.73 1059.01,188.04 111.34,4.95 232.59,9.9 311.77,89.08 103.92,106.39 64.33,291.97 -24.74,410.74"/>
    <path class="fil1 str2" d="M8528.71 16262.26c7.42,-116.29 12.37,-232.58 19.79,-348.87 2.48,-24.75 2.48,-51.97 17.32,-71.77 19.8,-34.63 64.34,-47 101.45,-54.43 143.52,-27.21 291.98,-32.17 437.96,-14.85 106.39,12.37 212.79,39.58 316.71,66.81 178.15,44.54 356.31,89.08 531.98,133.62 49.49,12.37 98.97,24.74 138.57,59.38 76.69,69.28 56.9,215.27 -37.12,257.33"/>
    <path class="fil1 str2" d="M16424.26 3719.93c-64.32,76.7 -123.71,158.35 -188.04,235.05 -190.53,235.07 -371.16,480.03 -561.67,715.09 -94.02,116.29 -188.04,232.59 -252.39,366.2 -153.4,319.18 -126.19,692.8 -210.31,1034.27 -81.66,336.5 -272.18,655.69 -249.92,1002.09 27.22,381.05 324.14,705.18 680.44,843.75 356.3,138.56 757.15,113.82 1125.82,17.31 326.61,-84.12 650.74,-230.1 866.01,-489.91 215.27,-259.81 296.92,-650.74 123.71,-942.71 -91.55,-155.89 -244.96,-267.23 -368.67,-400.85 -212.8,-230.12 -336.51,-536.94 -358.78,-848.7 -12.38,-158.35 2.47,-316.71 44.54,-470.12 49.49,-178.15 145.98,-334.03 232.58,-494.86 128.67,-244.97 185.58,-541.89 -47,-742.3 -160.84,-141.04 -378.58,-148.46 -566.63,-54.44 -106.38,54.45 -190.5,138.57 -269.69,230.13z"/>
    <path class="fil1 str3" d="M15738.88 4910.09c-79.18,94.01 -158.35,192.99 -212.79,304.34 -128.66,264.75 -106.39,581.46 -170.72,866.01 -59.39,267.22 -200.42,519.61 -178.16,791.79 24.75,299.39 254.86,556.72 531.98,670.53 277.12,113.82 588.89,98.97 883.33,34.65 272.18,-61.87 559.2,-188.05 732.4,-410.74 163.31,-210.32 220.22,-514.67 84.14,-744.78 -74.24,-123.72 -193.01,-212.79 -291.98,-316.72 -165.78,-180.62 -264.75,-418.16 -287.02,-658.17 -9.89,-121.24 -2.48,-244.95 27.21,-363.72 34.64,-138.57 106.4,-259.81 168.26,-386 27.21,-56.9 51.96,-118.76 66.81,-180.63 32.17,-143.51 14.85,-287.03 -106.4,-398.37 -121.24,-111.33 -287.02,-121.24 -428.06,-59.38 -81.65,37.12 -148.46,91.56 -207.84,155.89 -49.49,51.95 -96.5,111.34 -148.46,165.77 -54.44,59.39 -108.87,118.77 -163.31,180.63 -101.45,108.88 -200.42,230.13 -299.39,348.9z"/>
    <path class="fil1 str4" d="M15800.74 5150.08c-66.82,74.24 -128.67,150.94 -173.21,242.49 -101.45,212.79 -89.08,472.59 -128.66,695.29 -37.12,195.46 -128.66,383.51 -108.88,581.46 22.27,217.73 188.05,408.26 386,497.33 197.95,89.08 423.11,86.61 643.33,49.49 220.21,-39.58 467.64,-143.51 598.78,-329.09 111.35,-160.83 145.98,-378.56 42.06,-546.82 -54.43,-91.55 -141.03,-155.88 -212.78,-235.06 -121.25,-128.66 -193,-296.91 -212.8,-467.64 -9.89,-86.6 -7.42,-175.68 7.43,-259.8 19.8,-98.97 64.33,-185.58 103.93,-277.12 17.32,-42.07 32.17,-86.6 39.58,-131.15 19.8,-101.45 4.95,-205.36 -76.7,-287.02 -84.13,-81.65 -193,-94.02 -289.49,-61.86 -56.91,17.32 -101.45,44.54 -145.98,79.18 -37.12,29.69 -71.76,61.87 -108.88,94.02 -42.06,34.64 -84.12,69.28 -128.66,111.35 -79.19,74.23 -155.9,158.36 -235.07,244.95z"/>
    <path class="fil1 str5" d="M15865.06 5390.1c-54.43,51.95 -101.44,111.34 -133.61,180.63 -76.71,160.83 -69.28,363.73 -89.08,527.03 -14.85,123.72 -56.91,244.95 -37.11,371.15 22.26,138.57 118.76,259.8 240.01,324.13 118.77,64.34 259.8,76.71 400.84,64.34 165.78,-14.86 378.57,-96.51 465.18,-249.92 61.86,-108.87 69.28,-242.48 2.48,-348.87 -37.12,-56.91 -89.08,-101.45 -136.09,-150.94 -74.23,-79.18 -121.25,-178.15 -141.03,-277.12 -9.9,-51.96 -14.85,-103.93 -9.9,-153.4 4.95,-59.39 22.27,-111.35 37.12,-168.26 7.42,-24.74 12.37,-51.97 14.85,-79.19 7.42,-61.86 -2.48,-123.71 -47.01,-175.67 -44.54,-51.95 -101.45,-66.8 -150.94,-66.8 -29.69,0 -54.44,0 -81.65,4.94 -22.27,4.95 -44.54,12.38 -69.27,22.27 -27.22,9.89 -56.91,22.26 -91.56,39.58 -59.4,34.65 -118.78,84.13 -173.23,136.1z"/>
    <path class="fil1 str6" d="M16171.89 5889.91c-12.38,-42.06 -22.27,-86.59 -29.69,-133.62 -9.9,-61.86 -34.64,-136.08 -103.93,-148.46 -37.12,-7.42 -76.7,4.95 -108.87,24.76 -136.09,94.01 -153.41,324.12 -141.04,475.06 12.38,170.73 94.02,366.19 284.55,390.94 113.82,14.85 294.44,-49.49 329.09,-168.26 24.74,-86.59 -39.59,-158.35 -96.51,-215.26 -66.79,-74.23 -106.39,-143.5 -133.6,-225.16z"/>
    <path class="fil1 str2" d="M20885.47 5793.42c-341.47,84.12 -668.08,210.31 -1009.53,299.39 -277.12,71.76 -556.72,126.19 -841.27,163.31 -232.59,29.69 -477.54,37.12 -643.32,230.11 -210.33,247.43 -185.58,583.94 12.37,831.37 366.19,457.75 1148.08,512.19 1685.01,539.41 799.21,39.58 1878.02,-193.01 2075.95,-1103.55 79.19,-358.78 9.9,-868.5 -388.46,-1012.01 -262.29,-94.01 -539.41,-27.21 -801.69,32.17 -29.68,4.95 -59.37,12.37 -89.06,19.8z"/>
    <path class="fil1 str2" d="M20051.61 6233.84c-227.64,59.38 -462.69,101.44 -697.76,131.14 -193,24.74 -395.89,32.17 -536.93,185.57 -173.2,190.52 -160.83,460.23 -7.42,660.65 91.54,118.77 220.21,197.95 363.72,257.33 319.18,128.66 712.61,155.89 1021.9,168.26 635.9,29.69 1487.07,-150.94 1665.22,-863.55 74.24,-289.49 32.17,-702.7 -296.92,-818.99 -207.84,-74.24 -428.06,-22.27 -638.38,24.74 -24.74,4.95 -49.49,9.89 -71.75,17.32 -272.17,66.79 -534.45,165.77 -801.68,237.53z"/>
    <path class="fil1 str2" d="M20224.82 6374.87c-178.15,47.01 -366.2,76.7 -551.78,101.45 -155.88,19.8 -314.24,29.69 -428.06,143.51 -133.61,136.08 -138.56,338.99 -29.69,487.45 69.28,94.01 173.2,153.4 287.03,193 252.39,91.55 554.25,108.87 796.73,118.77 475.08,17.31 1096.12,-108.88 1256.96,-623.54 69.28,-222.69 54.43,-536.93 -202.9,-628.48 -153.4,-54.43 -316.71,-17.31 -475.07,17.32 -17.32,4.95 -37.12,7.43 -54.44,12.37 -205.36,51.96 -403.32,126.19 -598.78,178.15z"/>
    <path class="fil1 str2" d="M20398.02 6515.91c-128.66,34.63 -269.71,51.95 -408.26,69.27 -116.29,14.85 -232.59,24.75 -319.19,98.97 -94.02,81.66 -116.29,215.27 -49.48,316.72 44.54,69.28 126.19,106.39 207.84,128.66 183.1,51.96 393.42,64.33 574.04,69.28 311.77,7.43 710.12,-66.81 846.22,-383.52 66.81,-153.4 76.7,-371.15 -111.34,-435.48 -98.97,-34.64 -205.36,-14.85 -311.77,9.89 -12.37,2.48 -24.74,4.95 -37.11,7.43 -133.61,37.12 -267.23,86.61 -390.95,118.78z"/>
    <path class="fil1 str2" d="M20098.63 6750.97c-51.95,29.69 -96.5,91.56 -69.27,145.98 22.27,47.02 79.18,59.39 131.13,66.81 116.29,14.85 232.6,22.27 351.36,19.8 148.46,-2.48 334.04,-19.8 437.96,-143.51 69.27,-81.66 98.97,-205.37 -19.8,-244.97 -101.45,-32.17 -257.34,34.65 -353.83,61.87 -150.94,39.58 -346.42,22.27 -477.55,94.02z"/>
    <path class="fil1 str2" d="M3966.06 12360.26c34.64,-27.22 69.28,-54.44 101.45,-84.13 282.08,-254.86 507.24,-581.46 856.12,-749.72 826.42,-398.37 2286.27,86.6 2612.88,987.26 195.48,534.45 -64.33,1078.8 -321.66,1539.03 -155.89,282.08 -319.19,586.41 -336.5,915.5 -17.32,324.13 19.79,660.65 -121.25,964.99 -262.29,576.52 -950.14,811.57 -1519.23,962.51 -1610.79,425.58 -3543.23,-215.26 -3924.27,-1989.35 -24.75,-108.88 -39.59,-220.22 -51.97,-331.57 -47.01,-489.91 -42.06,-1061.48 188.05,-1506.85 222.69,-430.54 687.86,-445.38 1110.97,-408.27 504.77,47.01 989.73,19.79 1405.42,-299.4l-0.01 0z"/>
    <path class="fil1 str2" d="M4250.61 12533.47c232.59,-205.37 415.68,-470.13 702.71,-606.21 677.96,-321.67 1850.78,76.7 2140.29,799.2 180.63,452.8 -19.8,905.6 -240.01,1296.55 -133.62,237.53 -274.65,492.38 -299.4,767.04 -24.74,272.17 -9.89,551.77 -126.19,806.62 -225.17,484.97 -781.89,705.18 -1261.92,836.32 -353.82,96.51 -727.45,123.72 -1086.22,84.14 -368.67,-39.6 -720.03,-148.46 -1024.38,-321.67 -524.55,-296.91 -910.55,-776.94 -1041.69,-1459.85 -17.32,-91.55 -29.69,-183.1 -37.11,-274.65 -32.17,-403.32 -29.69,-870.96 155.88,-1239.64 178.15,-356.3 551.78,-376.09 890.76,-353.82 403.32,27.21 799.22,-2.48 1143.15,-264.76 27.22,-22.26 56.91,-44.53 84.13,-69.27z"/>
    <path class="fil1 str2" d="M4431.23 12790.79c180.63,-158.35 326.61,-358.77 549.31,-460.23 527.03,-242.47 1415.31,66.82 1665.22,611.16 168.26,368.68 27.21,729.93 -155.88,1051.6 -108.88,193 -227.64,400.84 -262.28,621.05 -34.64,220.21 -37.12,445.37 -133.62,648.27 -188.05,390.94 -613.64,598.78 -1007.04,710.12 -282.08,79.19 -583.94,96.51 -866.01,56.92 -289.5,-42.08 -561.67,-143.52 -784.37,-289.5 -388.47,-254.85 -645.79,-630.96 -727.46,-1170.35 -9.89,-71.77 -17.32,-145.98 -22.26,-217.75 -19.8,-316.71 -17.32,-682.91 123.71,-972.4 136.09,-279.6 415.69,-306.82 673.03,-301.87 306.81,7.42 608.68,-27.21 880.86,-230.11 22.25,-19.79 44.53,-39.59 66.79,-56.91z"/>
    <path class="fil1 str2" d="M4611.86 13048.11c128.65,-108.87 237.53,-247.42 395.88,-316.72 378.58,-165.78 987.26,54.45 1190.16,423.12 158.35,287.02 71.76,556.72 -74.23,809.11 -86.61,148.46 -183.1,306.81 -225.17,472.59 -42.06,165.77 -64.33,336.5 -141.04,492.38 -150.93,299.4 -445.37,492.4 -749.72,583.95 -210.32,64.33 -437.95,71.76 -645.79,29.69 -212.8,-42.06 -403.32,-136.09 -546.83,-257.33 -249.91,-210.33 -381.04,-487.45 -410.74,-883.33 -4.95,-54.44 -4.95,-106.4 -7.43,-163.31 -4.94,-230.11 -4.94,-494.87 91.56,-705.18 91.55,-202.9 279.6,-237.54 455.27,-247.43 210.32,-12.37 420.64,-49.49 621.05,-195.47 14.86,-17.32 32.18,-29.7 47.03,-42.07z"/>
    <path class="fil1 str2" d="M4792.49 13305.44c79.18,-61.85 145.98,-136.08 242.47,-173.2 230.12,-91.56 571.58,39.58 717.56,235.06 150.94,205.36 116.29,383.51 9.89,564.14 -61.86,103.93 -138.56,215.27 -188.04,326.62 -51.96,113.81 -91.56,230.1 -148.46,334.03 -113.82,207.84 -277.12,385.99 -494.87,457.75 -138.56,47.01 -294.44,44.54 -425.58,0 -133.62,-44.54 -244.96,-131.14 -309.29,-227.64 -113.82,-168.26 -113.82,-341.46 -96.5,-593.84 2.48,-34.64 7.42,-69.27 7.42,-106.39 7.43,-143.51 7.43,-304.34 56.91,-440.43 47.01,-126.2 141.04,-168.26 237.53,-195.48 111.35,-32.17 232.6,-69.27 361.26,-160.83 9.9,-4.95 19.8,-12.36 29.7,-19.79z"/>
    <path class="fil1 str2" d="M4814.75 14010.63c-47.01,136.08 -212.79,212.78 -242.48,356.29 -14.85,71.77 14.85,148.46 71.76,195.48 56.9,44.54 138.56,56.9 205.36,27.21 128.66,-54.43 160.83,-215.27 237.54,-331.55 128.66,-195.48 581.46,-460.23 215.26,-673.03 -94.02,-56.9 -230.1,-71.75 -329.08,-19.79 -185.57,96.51 -103.92,282.09 -158.36,445.39z"/>
    <path class="fil1 str2" d="M5240.35 8101.95c-81.66,227.64 -215.28,433 -338.99,643.33 -254.85,435.48 -470.13,900.64 -546.82,1397.99 -39.6,247.43 -24.75,541.88 175.67,692.81 96.5,71.76 222.69,96.5 343.92,101.45 217.75,9.89 445.38,-34.64 613.64,-173.2 247.43,-202.91 309.29,-549.31 378.57,-863.55 86.6,-398.37 207.84,-789.31 410.74,-1143.14 202.9,-351.36 489.92,-663.12 851.17,-851.18 331.56,-173.2 710.12,-232.58 1071.39,-334.03 361.25,-101.45 729.93,-257.33 950.14,-559.2 128.66,-178.15 195.47,-430.53 79.18,-616.1 -56.91,-94.03 -150.94,-155.89 -242.48,-217.74 -361.26,-242.48 -732.41,-487.45 -1150.56,-611.16 -480.02,-141.03 -1009.53,-111.34 -1469.76,89.08 -385.99,165.77 -915.5,536.93 -1034.27,967.46 -49.48,180.63 9.9,395.88 17.32,578.99 9.9,301.87 -4.96,611.17 -108.86,898.19z"/>
    <path class="fil1 str2" d="M5903.46 6352.61c-86.6,76.7 -168.26,160.83 -220.21,264.74 -106.4,207.85 -81.66,455.28 -39.6,685.39 24.75,145.98 56.91,291.98 91.56,435.49 34.64,141.03 103.93,309.29 249.91,326.61 86.59,9.89 168.26,-37.12 242.48,-81.65 259.8,-155.88 534.45,-291.97 816.53,-405.79 282.08,-111.35 574.04,-202.9 870.96,-267.23 279.6,-61.86 653.22,-133.62 737.35,-455.27 56.9,-212.8 -24.74,-522.09 -180.63,-677.97 -331.56,-331.56 -1113.45,-358.78 -1536.55,-294.44 -378.58,59.38 -744.78,217.73 -1031.8,470.12z"/>
    <path class="fil1 str2" d="M6932.77 6134.85c-269.7,44.55 -529.5,155.89 -734.87,331.57 -61.86,54.43 -121.25,113.81 -160.83,183.09 -81.65,145.99 -66.81,316.72 -51.96,475.07 9.89,111.35 22.27,230.12 59.38,341.46 32.17,98.97 84.13,215.28 190.52,227.65 61.87,7.42 121.25,-24.75 175.68,-56.91 22.27,-12.37 44.54,-24.75 66.81,-37.12 170.72,-96.5 343.93,-185.57 524.56,-259.8 195.47,-79.18 403.31,-143.51 618.58,-193 197.95,-44.54 450.33,-101.45 531.98,-316.72 56.9,-155.88 29.69,-373.62 -98.97,-497.33 -244.98,-232.59 -801.69,-249.91 -1120.88,-197.96z"/>
    <path class="fil1 str2" d="M6932.77 6387.24c-158.35,29.69 -314.24,94.03 -437.95,193 -39.59,29.69 -74.23,64.34 -101.45,103.93 -56.91,81.65 -54.44,178.15 -61.86,264.75 -7.43,76.7 -9.9,170.73 24.74,247.43 27.22,59.39 64.34,121.24 131.14,126.19 39.59,2.48 76.71,-14.85 111.34,-32.17 14.86,-7.42 27.22,-14.85 42.07,-22.26 106.39,-56.91 212.79,-118.77 324.14,-168.26 106.38,-44.55 235.05,-84.13 366.19,-116.29 118.77,-29.69 257.33,-69.28 324.13,-178.15 61.87,-103.93 84.13,-225.17 -17.32,-316.72 -155.87,-138.56 -489.91,-141.04 -705.17,-101.45z"/>
    <path class="fil1 str2" d="M6672.96 6770.76c-37.12,42.06 -49.49,111.34 -9.89,150.94 34.64,34.64 91.55,32.17 136.08,12.37 44.54,-19.8 81.65,-51.96 123.71,-76.7 34.65,-17.32 145.99,-44.55 230.12,-81.66 84.13,-37.11 141.03,-81.64 64.32,-136.08 -61.85,-44.55 -175.67,-34.64 -287.02,-2.48 -108.86,34.64 -215.25,86.6 -257.32,133.61z"/>
    <path class="fil1 str2" d="M4718.25 9517.26c-96.5,227.65 -173.2,467.64 -188.04,715.09 -4.95,91.55 -2.48,188.04 47,264.75 64.34,101.44 190.53,145.98 309.29,153.4 294.44,17.32 591.36,-165.77 705.19,-435.48 56.91,-133.62 71.76,-277.12 96.5,-420.64 39.58,-232.58 103.92,-460.22 195.47,-680.43 84.13,-202.9 272.17,-739.82 -141.04,-705.18 -316.71,27.21 -601.26,366.2 -764.56,611.16 -101.45,155.87 -185.57,324.13 -259.81,497.33z"/>
    <path class="fil1 str2" d="M5235.39 9160.96c-128.66,247.43 -254.86,497.34 -341.47,764.56 -17.32,51.96 -32.17,106.4 -27.21,160.84 4.94,54.43 32.17,108.87 79.18,133.62 64.33,29.69 141.04,0 195.47,-44.54 121.25,-98.98 175.67,-254.86 207.85,-405.8 29.69,-150.94 42.06,-309.29 98.96,-452.8 39.59,-101.45 205.37,-289.5 59.39,-368.68 -143.5,-81.65 -222.68,116.3 -272.17,212.8z"/>
    <path class="fil1 str2" d="M1927.21 3739.73c252.39,381.04 1316.34,1333.65 1714.71,1556.34 378.57,212.8 789.31,410.73 1219.84,390.95 502.29,-22.27 940.25,-334.04 1407.9,-514.66 381.04,-148.46 794.25,-210.32 1202.52,-183.1 289.5,19.8 576.52,81.66 863.55,64.34 487.44,-29.7 942.71,-301.87 1242.11,-685.4 299.39,-386 445.37,-875.91 452.8,-1363.34"/>
    <path class="fil1 str2" d="M2340.43 3596.22c240.02,338.98 1157.99,1157.98 1526.66,1353.45 356.3,185.57 732.4,331.55 1133.24,306.81 435.48,-27.21 814.06,-284.55 1222.31,-437.95 331.56,-123.72 687.86,-178.15 1041.69,-155.89 249.91,14.85 497.35,66.81 747.25,51.96 420.63,-27.21 811.58,-259.8 1081.28,-581.46 284.55,-338.99 442.9,-774.47 467.65,-1219.85"/>
    <path class="fil1 str2" d="M2751.17 3450.22c230.11,296.92 999.62,982.31 1338.6,1150.57 331.56,163.31 677.97,254.85 1044.17,222.69 366.2,-32.16 690.34,-237.53 1034.27,-361.25 279.6,-101.44 583.94,-143.51 880.86,-128.66 210.32,12.38 420.63,51.96 630.95,37.12 356.31,-24.74 682.92,-217.74 920.45,-477.54 269.71,-291.98 442.91,-673.03 482.5,-1073.87"/>
    <path class="fil1 str2" d="M3161.91 3306.72c217.74,252.38 841.26,804.16 1153.03,945.19 309.29,138.57 623.54,178.15 955.1,141.04 296.91,-34.64 564.14,-188.05 848.69,-284.55 230.1,-76.7 477.55,-111.35 720.02,-98.97 173.22,7.42 343.94,37.12 517.14,24.75 289.5,-19.8 554.26,-173.21 759.62,-371.16 254.85,-247.43 440.43,-571.57 494.86,-930.34"/>
    <path class="fil1 str2" d="M3575.11 3163.21c207.85,210.31 685.4,628.47 964.99,739.82 287.03,113.82 569.09,101.45 866.01,56.9 230.11,-34.64 440.43,-141.04 660.64,-207.84 180.64,-54.43 371.16,-76.71 559.21,-71.76 133.62,4.95 267.22,22.27 400.84,12.38 225.16,-17.33 430.54,-128.66 598.79,-267.23 244.96,-200.42 440.43,-470.12 509.7,-784.37"/>
    <path class="fil1 str2" d="M3985.86 3017.22c197.94,168.25 529.51,452.8 779.41,536.93 264.75,89.07 514.66,29.69 779.42,-27.22 160.83,-34.63 316.72,-91.55 475.07,-131.14 128.66,-29.69 264.75,-44.54 398.37,-42.06 94.01,0 188.04,7.43 284.54,0 158.36,-12.37 306.82,-81.65 437.96,-163.31 237.53,-148.46 437.95,-366.2 524.55,-638.38"/>
    <path class="fil1 str2" d="M4399.07 2873.7c185.57,126.2 371.15,274.66 588.89,331.56 242.48,64.34 460.22,-37.12 690.34,-108.87 319.18,-98.97 653.22,-29.7 969.93,-138.56 237.54,-81.66 435.49,-264.75 536.94,-494.88"/>
    <path class="fil1 str2" d="M2377.55 5330.72c262.28,225.16 559.2,410.73 873.43,549.3 257.34,113.82 531.98,197.95 759.62,366.2 781.89,576.52 695.29,1692.43 289.49,2452.05 -180.63,336.51 -385.99,663.12 -484.96,1031.79 -86.6,326.62 -79.18,668.08 -108.87,1004.58 -47.01,564.14 -222.69,1219.84 -893.24,1227.26 -242.48,2.48 -484.96,-74.24 -682.91,-215.27"/>
    <path class="fil1 str2" d="M2333.01 5694.43c215.26,212.8 472.59,388.48 747.24,527.03 222.69,113.82 457.75,205.37 648.27,361.25 640.86,531.98 544.35,1489.54 207.85,2160.09 -143.51,284.54 -311.77,559.2 -388.48,868.49 -69.27,272.17 -64.32,559.2 -89.07,841.27 -42.07,494.86 -205.37,1059.01 -771.99,1101.07 -207.84,14.85 -418.16,-34.64 -593.84,-138.57"/>
    <path class="fil1 str2" d="M2288.48 6060.64c168.25,200.42 388.46,366.2 621.05,502.28 188.04,111.35 383.51,210.32 539.4,358.78 502.28,484.97 390.93,1284.18 123.71,1870.59 -106.39,232.6 -235.05,455.27 -291.97,705.19 -51.96,220.21 -49.49,450.32 -69.28,675.48 -37.11,428.06 -188.04,900.66 -653.22,972.41 -173.21,27.21 -351.36,4.94 -502.29,-61.86"/>
    <path class="fil1 str2" d="M2246.41 6426.83c121.24,188.05 304.34,343.93 492.39,480.02 153.41,111.34 309.29,212.79 428.06,356.3 363.72,435.48 237.53,1078.8 42.06,1581.1 -69.28,178.15 -158.35,348.87 -197.95,539.39 -34.64,168.26 -32.17,341.47 -47.01,512.2 -32.17,358.77 -170.73,742.29 -531.97,846.21 -138.57,39.59 -282.08,44.55 -413.21,14.85"/>
    <path class="fil1 str2" d="M2201.86 6793.03c76.71,175.67 220.23,319.18 366.21,455.27 118.76,108.88 237.53,217.73 319.18,351.35 227.64,381.05 81.65,870.96 -42.06,1289.13 -37.13,123.71 -81.66,244.96 -101.45,376.1 -17.32,113.82 -17.32,232.59 -27.21,348.88 -27.23,289.49 -150.94,586.41 -410.75,717.55 -103.93,51.95 -215.27,84.12 -324.13,91.55"/>
    <path class="fil1 str2" d="M2159.8 7159.23c51.96,296.92 358.78,492.39 447.86,779.41 101.44,324.14 -91.56,660.65 -123.72,999.64 -12.37,131.14 0,264.75 -14.85,395.89 -34.63,319.18 -240.01,613.63 -524.56,757.14"/>
    <path class="fil1 str2" d="M16983.46 16299.37c42.07,-274.64 -7.42,-554.24 -86.6,-818.99 -86.59,-287.03 -205.36,-524.56 -111.34,-826.43 86.6,-274.65 272.18,-519.61 519.62,-670.54 517.13,-314.24 1118.39,-4.94 1670.17,-17.32 519.61,-12.38 1016.95,-264.74 1534.08,-331.56 601.27,-76.7 1063.97,247.43 1264.38,809.11 210.32,591.36 150.94,1365.83 618.58,1835.95 160.83,160.83 368.68,264.75 574.04,358.78"/>
    <path class="fil1 str2" d="M17315.02 16284.52c32.17,-242.47 -12.37,-484.96 -81.65,-717.55 -74.23,-252.38 -178.15,-460.23 -94.02,-722.5 79.18,-242.47 252.38,-447.85 472.59,-574.03 447.86,-254.86 960.04,4.95 1435.11,0 457.75,-4.95 895.7,-222.7 1350.98,-279.6 524.56,-66.82 940.24,207.84 1120.87,695.28 185.57,502.29 143.51,1157.98 531.97,1571.19 138.57,148.46 311.77,254.86 484.97,348.88"/>
    <path class="fil1 str2" d="M17646.58 16272.15c22.27,-207.84 -17.32,-418.16 -74.24,-618.58 -61.85,-215.26 -148.45,-395.89 -74.23,-618.58 71.76,-210.32 232.59,-378.57 425.58,-477.55 378.57,-195.47 801.68,9.9 1200.05,14.85 395.88,4.95 774.47,-178.15 1170.36,-227.64 450.32,-56.9 816.53,165.78 977.35,581.46 160.83,415.69 138.56,952.63 442.9,1306.45 118.76,136.09 254.85,242.48 395.89,338.98"/>
    <path class="fil1 str2" d="M17978.15 16259.78c12.37,-173.2 -19.8,-348.87 -69.28,-519.61 -51.96,-178.15 -118.77,-331.56 -54.43,-514.66 61.85,-178.15 212.78,-306.81 378.56,-378.56 309.29,-136.09 645.8,24.74 964.99,32.17 331.56,7.42 655.7,-136.09 987.26,-175.68 373.62,-44.54 692.81,126.19 836.32,467.65 136.09,326.61 128.66,747.24 353.83,1039.22 96.49,123.71 200.41,232.58 306.81,329.08"/>
    <path class="fil1 str2" d="M18309.71 16244.94c2.48,-141.03 -24.75,-282.08 -61.87,-418.17 -39.58,-141.03 -89.07,-269.7 -37.12,-410.73 54.45,-145.99 193.01,-235.06 334.04,-282.08 237.54,-81.65 487.45,34.64 729.92,47.01 269.71,12.37 534.46,-91.56 804.17,-121.25 299.39,-34.63 569.09,86.6 692.81,353.83 111.33,240.01 116.28,546.82 264.74,774.47 74.24,113.82 143.51,220.21 220.22,319.18"/>
    <path class="fil1 str2" d="M18641.26 16232.57c-7.42,-106.4 -29.69,-212.79 -56.9,-319.18 -27.22,-103.93 -59.39,-205.37 -17.32,-306.82 49.49,-113.82 170.73,-165.78 287.02,-185.58 163.31,-27.21 329.09,47.02 494.87,64.34 207.84,19.79 413.21,-49.49 623.53,-69.29 222.69,-22.26 442.9,47.02 549.31,240.02 84.12,153.41 101.44,351.35 178.15,507.24 51.95,103.93 86.59,210.33 131.14,309.29"/>
    <path class="fil1 str2" d="M18970.35 16220.2c-17.32,-71.76 -34.64,-145.98 -51.96,-217.74 -14.85,-66.81 -29.69,-141.04 2.48,-202.9 42.06,-81.65 148.46,-103.93 240.01,-89.08 89.08,14.85 173.21,59.39 262.28,79.19 143.52,32.17 294.44,-4.95 440.43,-17.32 145.99,-12.37 314.24,9.9 405.8,126.2 54.43,66.8 74.23,155.88 89.07,242.47 17.32,98.97 32.17,197.95 42.07,299.4"/>
   </g>
  </g>
  <polygon class="fil1" points="9601,3394.21 12847.09,5752.63 16093.2,8111.06 14853.29,11927.06 13613.4,15743.07 9601.01,15743.07 5588.62,15743.07 4348.73,11927.06 3108.82,8111.06 6354.93,5752.63 9601.02,3394.21 "/>
  <g id="_2367764168800">
   <path class="fil2" d="M9809.46 3106.53l3246.09 2358.43 3246.1 2358.42 209.04 151.88 -79.79 245.59 -1239.9 3816 -1239.9 3816.01 -79.93 245.98 -257.77 0 -4012.39 0 -4012.39 0 -257.77 0 -79.93 -245.98 -1239.9 -3816.01 -1239.9 -3816 -79.79 -245.59 209.04 -151.88 3246.1 -2358.42 3246.09 -2358.43 208.46 -151.45 208.46 151.45 -0.02 0zm-208.46 287.68l3246.09 2358.42 3246.11 2358.43 -1239.91 3816 -1239.89 3816.01 -4012.39 0 -4012.39 0 -1239.89 -3816.01 -1239.91 -3816 3246.11 -2358.43 3246.09 -2358.42 -0.02 0z"/>
  </g>
 </g>
</svg>
