<?xml version="1.0" encoding="UTF-8"?>
<!DOCTYPE svg PUBLIC "-//W3C//DTD SVG 1.1//EN" "http://www.w3.org/Graphics/SVG/1.1/DTD/svg11.dtd">
<!-- Creator: CorelDRAW -->
<svg xmlns="http://www.w3.org/2000/svg" xml:space="preserve" width="86.3598mm" height="76.1998mm" version="1.1" style="shape-rendering:geometricPrecision; text-rendering:geometricPrecision; image-rendering:optimizeQuality; fill-rule:evenodd; clip-rule:evenodd"
viewBox="0 0 8635.98 7619.98"
 xmlns:xlink="http://www.w3.org/1999/xlink"
 xmlns:xodm="http://www.corel.com/coreldraw/odm/2003">
 <defs>
  <style type="text/css">
   <![CDATA[
    .str1 {stroke:#21AD69;stroke-width:26.46;stroke-miterlimit:22.9256}
    .str2 {stroke:#21AD69;stroke-width:24.29;stroke-miterlimit:22.9256}
    .str3 {stroke:#21AD69;stroke-width:22.13;stroke-miterlimit:22.9256}
    .str0 {stroke:#21AD69;stroke-width:52.92;stroke-miterlimit:22.9256}
    .str4 {stroke:#21AD69;stroke-width:19.97;stroke-miterlimit:22.9256}
    .str5 {stroke:#21AD69;stroke-width:17.81;stroke-miterlimit:22.9256}
    .fil2 {fill:none}
    .fil1 {fill:none;fill-rule:nonzero}
    .fil0 {fill:#004222}
    .fil3 {fill:#004222;fill-rule:nonzero}
   ]]>
  </style>
   <clipPath id="id0">
    <path d="M4185.35 59.81l1262.97 917.6 1262.97 917.6 -482.41 1484.71 -482.41 1484.71 -1561.12 0 -1561.11 0 -482.41 -1484.71 -482.41 -1484.71 1262.97 -917.6 1262.96 -917.6z"/>
   </clipPath>
 </defs>
 <g id="Camada_x0020_1">
  <metadata id="CorelCorpID_0Corel-Layer"/>
  <polygon class="fil0" points="4185.35,59.81 5448.32,977.41 6711.29,1895.01 6228.88,3379.72 5746.47,4864.43 4185.35,4864.43 2624.24,4864.43 2141.83,3379.72 1659.42,1895.01 2922.39,977.41 "/>
  <g style="clip-path:url(#id0)">
   <g id="_2275749765584">
    <g>
     <path id="_1" class="fil1 str0" d="M4769.35 -28.14c-238.75,192.54 -449.58,418.78 -627.67,669.07 -70.28,99.16 -132.86,240.68 -52.95,331.17 22.14,24.07 51.02,40.44 76.05,61.61 135.74,113.6 109.75,326.36 59.69,496.75 -15.41,51.99 -32.74,105.9 -73.17,143.44 -60.65,55.84 -151.14,54.88 -231.04,73.17 -174.25,39.47 -311.92,177.13 -483.28,229.12 -61.61,18.29 -127.07,25.99 -185.8,51.02 -158.84,67.39 -239.71,242.6 -295.54,406.26 -38.51,113.59 -72.21,236.82 -35.62,350.41 24.07,75.1 77.01,137.67 129,198.32 139.59,162.69 283.03,329.24 471.72,428.4 142.47,75.09 319.61,106.86 463.05,34.65 25.03,-12.51 50.06,-29.84 64.5,-53.91 34.66,-56.79 2.89,-129 -19.25,-192.54 -38.51,-112.63 -38.51,-249.33 39.47,-339.83 95.31,-110.71 260.89,-114.56 407.22,-119.37 117.45,-3.85 237.78,-15.4 341.75,-71.24 103.01,-55.84 184.84,-165.58 174.25,-283.03 -15.4,-170.4 -214.68,-315.76 -152.1,-475.57 16.36,-43.32 51.02,-77.02 89.53,-103.01 77.01,-51.02 169.43,-70.28 260.89,-80.86 146.33,-16.37 294.58,-9.63 440.91,-28.89 146.33,-19.25 294.58,-66.42 397.59,-171.36 227.2,-232.01 145.37,-630.56 309.99,-910.7 65.46,-110.71 164.62,-196.39 244.52,-297.47 79.9,-101.09 140.55,-232.01 106.86,-355.24"/>
     <path class="fil1 str1" d="M3633.37 2374.74c-12.51,18.29 -22.14,39.47 -21.18,61.61 0.97,22.15 13.48,44.29 34.66,51.99 32.73,10.59 62.58,-17.33 89.53,-38.5 60.65,-48.14 129.96,-34.66 193.5,-67.39 43.32,-23.11 32.73,-55.84 0,-83.76 -93.38,-79.9 -237.78,-11.55 -296.51,76.05z"/>
     <path class="fil1 str1" d="M4103.17 2239.97c-51.02,-40.44 -115.52,-68.35 -177.14,-76.06 -20.21,-2.89 -40.43,-1.92 -59.68,1.93 -43.32,7.7 -83.76,28.88 -124.19,52.95 -43.32,25.99 -87.6,44.28 -129.96,69.31 -40.44,23.1 -74.13,51.99 -97.23,92.42 -25.03,44.28 -28.89,95.31 -15.41,141.51 0.97,4.82 2.89,9.63 4.82,14.45 18.29,50.05 56.79,97.23 103,122.26 56.8,30.8 128.04,12.51 156.92,-51.99 13.48,-30.81 22.14,-61.61 45.25,-86.64 30.81,-33.7 77.01,-38.51 119.37,-43.32 41.4,-5.78 84.72,-9.63 124.19,-26 34.65,-14.44 60.65,-40.43 79.9,-70.28 32.73,-49.09 19.26,-102.03 -29.84,-140.54z"/>
     <path class="fil1 str1" d="M4278.38 2182.2c-74.13,-56.79 -172.32,-103 -263.78,-117.44 -31.77,-4.82 -60.65,-3.85 -88.57,1.92 -65.46,12.52 -123.22,48.13 -181.95,85.68 -63.54,41.4 -130.92,64.5 -197.35,98.2 -62.58,31.77 -114.56,71.24 -147.29,133.81 -38.51,72.2 -38.51,154.99 -9.63,229.12 2.89,7.71 6.74,15.4 9.63,23.11 35.62,77.01 100.12,148.25 172.32,193.5 80.87,51.02 193.5,43.32 223.34,-64.5 14.44,-51.99 18.29,-105.9 50.06,-150.18 43.32,-60.65 117.45,-64.5 184.84,-72.21 65.46,-6.73 133.81,-12.51 194.46,-40.43 53.91,-25.03 92.42,-69.31 113.6,-123.23 26.96,-70.27 3.86,-148.25 -59.68,-197.35z"/>
     <path class="fil1 str1" d="M4452.63 2123.48c-98.2,-74.13 -229.12,-138.63 -350.42,-158.84 -42.36,-6.74 -80.87,-5.78 -118.41,1.92 -86.65,17.33 -161.74,67.39 -239.71,118.42 -84.72,55.83 -174.25,83.75 -264.74,127.07 -83.76,40.44 -155,91.45 -198.32,176.17 -51.02,100.13 -47.17,214.68 -3.85,315.77 4.82,10.58 9.63,21.18 14.45,31.76 52.94,104.94 144.4,200.24 240.67,264.74 105.9,70.28 259.93,74.13 290.73,-77.01 15.4,-72.21 14.44,-150.18 55.84,-214.68 55.84,-86.65 157.88,-90.5 250.3,-100.13 89.53,-8.66 181.95,-15.4 264.74,-54.87 73.16,-35.62 127.07,-97.23 147.29,-176.17 25.02,-91.46 -9.63,-194.46 -88.57,-254.15z"/>
     <path class="fil1 str1" d="M4042.52 1866.44c-107.82,22.14 -201.2,85.68 -298.44,152.11 -104.93,71.24 -217.57,103.97 -332.12,155.95 -105.9,48.14 -194.47,110.71 -248.38,217.57 -64.5,129 -55.84,274.37 1.92,403.37 67.39,149.22 195.43,283.03 329.25,375.45 130.92,90.5 325.39,104.94 358.12,-89.53 15.4,-93.38 10.59,-194.46 61.61,-278.22 68.35,-113.6 198.31,-117.44 315.76,-128.04 113.6,-10.58 231.05,-18.29 335.02,-70.27 92.42,-46.21 162.69,-126.12 181.95,-229.13 20.21,-113.59 -26,-241.63 -119.38,-310.94 -122.26,-91.46 -285.92,-173.29 -437.06,-200.24 -53.91,-9.63 -102.04,-7.71 -148.25,1.92z"/>
     <path class="fil1 str1" d="M5097.63 -45.47c-216.61,186.77 -474.61,355.24 -619.97,609.39 -77.02,133.81 -66.43,263.78 -53.92,410.11 14.45,176.17 -8.66,342.72 -22.14,517.93 -4.81,58.72 4.82,124.18 47.18,164.62 105.89,102.05 284.96,28.88 399.51,-12.52 236.83,-85.68 482.31,-77.01 722.03,-140.55 174.24,-47.17 313.83,-166.55 402.4,-322.5 100.12,-178.1 137.66,-388.93 209.86,-580.51 73.17,-193.5 273.41,-371.6 282.07,-583.39"/>
     <path class="fil1 str1" d="M5067.78 124.93c-140.55,113.6 -257.03,255.12 -339.83,414.92 -32.73,62.58 -60.65,128.04 -72.2,197.36 -21.18,125.15 11.55,255.11 -11.55,379.3 -10.59,52.94 -30.81,104.93 -35.62,158.84 -5.78,53.91 7.7,114.56 51.02,147.29 26.96,20.22 62.58,26.96 97.23,25.99 99.16,-1.92 187.73,-54.87 280.15,-89.52 204.09,-77.02 449.57,-72.21 608.42,-223.35 71.24,-67.39 114.56,-158.84 151.14,-249.34 123.23,-306.13 191.58,-640.19 377.38,-913.59"/>
     <path class="fil1 str1" d="M5279.58 89.31c-62.58,56.8 -120.34,118.41 -174.25,182.91 -25.99,30.81 -51.99,74.13 -31.77,108.79 13.48,23.1 42.36,31.77 68.35,38.51 77.02,20.21 155,40.43 232.01,60.65 66.43,17.33 134.78,34.65 202.17,25.03 86.64,-13.48 161.73,-71.24 212.76,-142.48 51.98,-71.24 83.75,-154.03 113.59,-235.86 5.78,-16.37 8.67,-39.47 -7.7,-45.25"/>
     <path class="fil1 str1" d="M4837.7 794.97c-3.85,54.87 15.4,108.78 23.11,163.65 8.66,61.62 1.92,125.15 -19.26,183.88 -13.47,35.62 -31.77,76.05 -15.4,110.71 19.26,42.36 79.9,48.13 121.3,28.88 42.36,-19.26 74.13,-55.84 111.68,-81.83 108.78,-74.13 257.03,-55.84 377.37,-108.79 204.09,-88.57 220.46,-320.57 59.69,-460.16 -104.94,-91.46 -328.28,-81.83 -452.47,-49.1 -98.2,25.03 -198.31,103.01 -206.02,212.76z"/>
     <path class="fil1 str1" d="M5055.27 851.76c3.85,18.3 13.48,34.66 15.4,53.92 1.93,19.25 -5.77,40.43 0.97,57.76 8.66,21.18 34.66,30.81 57.76,28.88 23.1,-1.92 44.28,-13.48 65.46,-21.18 60.65,-22.14 127.08,-29.84 153.07,-97.23 18.29,-48.14 8.67,-113.6 -34.65,-146.33 -82.8,-62.58 -284.97,1.92 -258.01,124.18z"/>
     <path class="fil1 str1" d="M5375.85 113.38c-29.85,13.48 -51.99,41.4 -64.5,72.2 -12.52,30.81 -17.33,63.54 -20.22,96.27 -0.96,13.48 -2.89,26.96 2.89,39.47 4.81,10.59 13.48,18.29 23.11,25.03 87.6,65.47 215.64,68.35 309.98,12.52 94.35,-55.84 153.07,-164.62 155.96,-274.37"/>
     <path class="fil1 str0" d="M9152.49 1700.86c-335.02,198.31 -748.01,273.41 -1122.5,167.51 -150.18,-42.36 -305.17,-112.63 -454.39,-69.31 -105.9,30.8 -188.69,114.56 -294.59,145.36 -76.05,22.14 -157.88,15.4 -237.78,19.26 -162.7,6.74 -327.31,62.57 -439.95,180.02 -112.64,116.49 -161.73,300.36 -96.27,448.62 25.03,55.83 63.54,103.97 86.64,159.8 77.02,182.92 -15.4,425.51 116.49,573.77 37.55,42.36 90.49,70.28 127.08,112.63 66.42,77.02 73.16,186.76 77.01,287.85 2.89,83.75 0.97,179.06 -60.65,235.86 -75.09,68.35 -192.54,41.39 -289.77,12.51 -271.48,-80.86 -548.74,-143.44 -829.84,-179.06 -175.21,-22.14 -389.89,-15.4 -479.42,136.7 -85.68,147.29 -10.59,370.64 -142.48,478.46 -47.17,38.51 -109.75,50.06 -169.44,56.8 -380.26,38.51 -751.86,-112.64 -1133.09,-143.44 -178.09,-14.44 -391.81,17.33 -471.72,177.13 -55.83,110.71 -26.95,241.64 -11.55,364.86 15.4,122.26 3.85,268.59 -98.19,337.91"/>
     <path class="fil1 str0" d="M1390.3 3495.32c99.16,63.54 228.16,78.94 339.83,40.43 111.68,-38.5 203.13,-130.92 240.68,-242.6 43.32,-127.07 18.29,-266.66 26.95,-400.48 14.44,-252.22 144.41,-480.38 252.23,-709.5 107.82,-228.16 197.35,-487.12 128.04,-729.72 -73.17,-257.04 -306.14,-435.14 -544.89,-556.44 -170.39,-86.64 -361.01,-163.65 -463.05,-325.39"/>
     <path class="fil1 str0" d="M7427.34 127.82c-34.65,153.07 -132.85,283.99 -189.65,430.32 -56.79,146.33 -58.72,337.91 65.47,435.14 74.13,57.76 175.21,66.43 269.55,67.39 194.47,1.92 388.93,-20.22 577.62,-66.42 278.22,-66.43 565.09,-183.88 839.46,-103.98"/>
     <path class="fil1 str1" d="M8269.7 2093.64c-224.31,-51.99 -464.01,-175.21 -671,-74.13 -45.24,22.14 -85.68,53.91 -130.92,77.02 -97.23,49.1 -210.83,52.95 -318.65,70.28 -153.07,25.03 -315.76,95.3 -375.45,238.74 -36.58,88.57 -26.96,187.73 -15.41,282.07 12.52,99.16 27.92,197.36 46.21,295.55 16.37,89.53 35.63,180.99 81.83,259.93 63.54,107.82 171.36,181.95 282.07,238.75 423.59,219.49 958.85,239.71 1371.84,0 269.55,-155.96 471.72,-427.44 548.74,-729.72 51.98,-206.02 95.3,-681.59 -215.65,-676.77 -209.87,4.8 -390.86,67.37 -603.61,18.28z"/>
     <path class="fil1 str1" d="M8726.02 2221.67c-164.62,1.93 -312.88,49.1 -486.16,13.48 -180.99,-37.54 -374.49,-128.04 -542,-49.1 -36.58,17.33 -70.28,42.36 -106.86,60.65 -78.94,38.51 -170.39,43.32 -256.07,59.69 -123.23,23.1 -253.19,81.83 -302.29,195.43 -30.81,70.27 -25.03,150.18 -16.36,227.19 9.62,80.87 23.1,160.77 40.43,239.71 15.4,72.2 34.66,144.41 74.13,206.98 53.91,84.71 141.51,141.51 231.04,186.76 66.43,32.73 136.71,59.69 208.91,80.87 298.43,86.64 630.56,68.35 900.12,-84.72 220.45,-125.15 387,-349.46 447.65,-593.98 42.35,-173.28 66.42,-544.88 -192.54,-542.96z"/>
     <path class="fil1 str1" d="M8579.69 2365.12c-121.3,0 -235.86,32.73 -370.64,10.58 -137.67,-23.1 -284,-80.86 -413,-23.1 -28.88,12.52 -53.91,29.84 -81.83,43.32 -61.61,28.88 -129.96,34.66 -193.5,49.1 -94.34,21.18 -190.61,67.39 -229.12,152.1 -24.07,52.95 -23.1,112.64 -17.33,171.36 6.74,62.58 18.29,124.19 35.62,183.88 15.4,54.87 33.7,107.82 66.43,154.02 44.28,60.66 110.71,102.05 180.02,133.82 51.02,23.1 104.94,42.36 159.81,56.8 228.16,60.65 479.42,48.13 685.43,-65.47 171.36,-94.34 303.25,-270.52 347.54,-458.24 32.73,-137.66 37.55,-408.17 -169.43,-408.17z"/>
     <path class="fil1 str1" d="M8434.32 2509.52c-77.02,-0.96 -159.81,16.37 -254.15,7.7 -93.38,-8.66 -194.47,-33.69 -283.99,1.93 -20.22,7.7 -38.51,18.29 -57.77,26.95 -43.32,18.29 -88.57,26 -131.89,38.51 -64.5,19.25 -127.07,53.91 -155.95,108.78 -18.29,35.63 -21.18,76.06 -18.29,116.49 2.88,44.29 13.47,87.61 29.84,128.04 14.44,36.58 32.73,71.24 59.69,100.12 34.65,37.55 80.86,62.58 129.96,81.83 35.62,13.48 73.16,25.03 110.71,33.7 156.92,34.65 328.28,27.91 470.75,-45.25 123.23,-62.58 218.53,-192.54 246.45,-323.46 22.15,-105.91 9.63,-273.41 -145.36,-275.34z"/>
     <path class="fil1 str1" d="M7789.32 2849.35c0,49.1 33.69,93.38 76.05,118.41 42.36,25.03 92.42,33.7 141.51,38.51 86.65,8.66 177.14,8.66 257.04,-25.99 143.45,-61.61 235.86,-313.84 24.07,-327.32 -126.11,-7.7 -497.71,28.88 -498.67,196.39z"/>
     <path class="fil1 str1" d="M5082.23 5136.71c120.33,-87.61 185.8,-233.94 213.72,-380.26 27.91,-146.33 24.06,-296.51 36.58,-444.77 8.66,-97.23 26.95,-200.24 94.34,-271.48 103.97,-108.78 262.81,-106.86 400.48,-80.87 206.02,39.47 404.33,118.42 582.43,229.13 71.24,43.32 143.44,87.6 224.31,106.85 96.27,23.11 197.35,-3.84 273.4,-65.46 64.5,-52.95 98.2,-129.96 149.22,-193.5 53.91,-65.46 125.15,-106.86 208.91,-121.3 223.34,-37.55 425.51,98.2 645.96,94.34 190.62,-3.85 351.38,-110.71 536.22,-142.47 193.5,-32.74 367.75,33.69 480.38,197.35 94.35,136.7 126.12,303.25 172.32,460.17 42.36,144.4 120.34,270.51 217.57,384.11 104.94,123.23 206.02,248.38 329.25,356.2"/>
     <path class="fil1 str1" d="M5303.64 5050.06c87.61,-77.01 131.89,-192.54 158.85,-306.13 26.95,-113.6 41.39,-231.05 85.68,-339.83 44.28,-107.82 125.15,-209.87 238.75,-239.71 103.97,-27.92 214.68,7.7 308.06,60.65 93.38,52.94 177.13,122.26 273.41,169.43 93.38,46.21 196.38,70.28 284.95,124.19 120.34,72.2 207.95,196.39 234.9,333.09 27.92,137.66 -5.78,285.92 -88.57,398.56"/>
     <path class="fil1 str1" d="M5519.29 5030.81c39.47,-113.6 78.94,-228.16 117.45,-341.76 28.88,-82.79 61.61,-172.32 133.81,-222.38 66.43,-46.21 154.99,-50.06 232.97,-29.84 77.98,20.21 148.26,63.54 217.57,104.93 82.79,50.06 164.62,100.12 247.41,151.15 38.51,23.1 77.02,47.17 105.9,80.86 76.05,88.57 58.72,241.64 -35.62,311.92"/>
     <path class="fil1 str1" d="M5819.65 5058.73c4.81,-82.79 11.55,-171.36 62.57,-237.79 70.28,-91.45 207.95,-109.75 314.81,-65.46 38.5,16.36 75.09,40.43 96.26,76.05 23.11,38.51 25.03,85.68 25.03,129.97 0,86.64 -7.7,172.32 -20.21,258"/>
     <path class="fil1 str1" d="M7358.99 685.22c0,68.35 25.03,139.59 78.95,180.99 34.65,25.99 77.01,38.5 119.37,46.2 359.08,70.28 718.17,-91.45 1078.21,-156.91 90.5,-16.37 186.76,-28.89 259.93,-84.72 104.94,-78.94 133.82,-224.31 134.78,-355.23 0.96,-79.9 -6.74,-162.7 -46.21,-231.05 -33.69,-58.72 -87.6,-103 -146.33,-137.66 -131.89,-77.99 -286.88,-109.75 -440.91,-123.23 -173.29,-15.4 -348.5,-8.66 -519.86,20.22 -106.86,18.29 -241.63,34.65 -309.98,129.96 -51.99,72.2 -59.69,175.21 -82.79,258.96 -40.44,146.33 -126.12,297.47 -125.16,452.47z"/>
     <path class="fil1 str1" d="M8735.64 -8.88c-101.08,-60.65 -220.45,-87.6 -337.9,-98.2 -7.7,-0.96 -16.37,-0.96 -24.07,-1.92 -141.52,-10.59 -284.96,-2.89 -425.51,22.14 -87.61,15.4 -197.35,30.81 -254.15,108.78 -43.32,59.69 -50.06,142.48 -70.28,210.83 -25.03,85.68 -68.35,174.25 -91.45,263.78 -8.67,35.62 -14.45,72.2 -14.45,108.79 0.97,55.83 21.18,114.56 65.47,149.21 27.92,21.18 62.57,30.81 97.23,38.51 60.65,11.55 121.3,15.4 180.99,13.48 232.97,-7.71 465.94,-99.16 698.91,-144.41 74.13,-14.44 152.11,-25.03 211.8,-70.28 85.68,-64.5 108.78,-181.95 112.63,-288.81 1.92,-61.61 0,-125.15 -25.03,-180.98 -1.92,-4.82 -3.85,-8.67 -6.74,-13.48 -25.03,-49.09 -69.31,-87.6 -117.45,-117.44z"/>
     <path class="fil1 str1" d="M8632.63 35.4c-78.94,-49.1 -172.32,-68.35 -264.73,-75.09 -5.78,0 -12.52,-0.97 -18.3,-0.97 -109.74,-6.73 -221.41,1.93 -330.2,24.07 -68.35,13.48 -153.07,26.96 -197.35,87.61 -34.66,46.21 -41.4,110.71 -57.76,163.66 -21.18,67.38 -56.8,135.73 -74.13,206.97 -6.74,28.88 -11.55,56.8 -10.59,85.68 0.96,44.29 17.33,90.5 51.99,117.45 22.14,16.37 49.1,24.07 75.09,29.84 47.17,9.63 94.34,12.52 140.55,10.59 180.99,-5.78 361.97,-77.02 542,-114.56 56.79,-11.55 117.44,-21.18 163.65,-56.79 66.43,-51.03 84.72,-140.56 90.5,-223.35 3.85,-49.1 4.81,-100.12 -12.52,-145.36 -0.96,-3.85 -2.89,-7.71 -4.81,-10.59 -20.22,-41.4 -53.92,-75.09 -93.39,-99.16z"/>
     <path class="fil1 str1" d="M8529.63 79.68c-55.84,-36.58 -125.15,-49.09 -190.62,-51.98 -4.81,0 -8.66,0 -13.47,0 -77.98,-1.93 -157.89,6.74 -235.86,25.99 -49.1,11.55 -108.79,23.11 -141.52,66.43 -25.99,33.69 -32.73,78.94 -46.21,115.52 -17.33,48.13 -44.28,98.2 -56.8,150.18 -4.81,21.18 -8.66,42.36 -7.7,62.57 0.96,32.74 12.52,65.47 38.51,85.68 15.4,11.56 34.65,17.33 53.91,21.18 33.69,6.74 66.42,9.63 100.12,7.71 129.96,-3.85 258,-54.88 385.07,-85.68 40.44,-9.63 81.84,-17.33 115.53,-43.32 47.17,-36.58 60.65,-99.16 68.35,-156.92 4.81,-36.58 9.63,-75.09 -0.97,-110.71 -0.96,-2.89 -1.92,-5.78 -2.89,-8.66 -11.54,-30.81 -35.61,-58.73 -65.45,-77.99z"/>
     <path class="fil1 str1" d="M8427.58 123.97c-33.69,-24.07 -77.02,-30.81 -117.45,-28.88 -2.89,0 -5.77,0 -7.7,0 -46.21,1.92 -94.34,12.51 -141.52,27.92 -29.84,9.62 -64.5,20.21 -84.71,45.24 -16.37,20.22 -24.07,46.21 -33.69,68.35 -13.48,29.84 -31.77,59.69 -40.44,92.42 -2.89,13.48 -4.81,26.95 -4.81,40.43 0.96,20.22 8.66,41.4 25.03,53.92 9.62,6.73 20.21,10.58 31.76,13.47 19.26,4.82 39.48,5.78 59.69,4.82 77.98,-1.93 153.07,-33.7 227.2,-55.84 23.1,-6.74 47.17,-13.48 66.42,-28.88 27.92,-22.14 37.55,-57.76 46.21,-90.5 6.74,-25.03 15.4,-50.06 11.55,-76.05 0,-1.92 -0.96,-3.85 -0.96,-5.78 -3.85,-24.06 -16.36,-46.2 -36.58,-60.64z"/>
     <path class="fil1 str1" d="M8181.13 237.57c-9.62,10.59 -19.25,22.14 -23.1,35.62 -3.85,13.48 -0.97,29.84 10.59,39.47 7.7,5.78 19.25,7.7 28.88,7.7 45.24,-0.96 83.75,-31.77 112.63,-66.42 10.59,-12.52 20.22,-25.03 24.07,-40.44 3.85,-15.4 1.93,-33.69 -10.59,-44.28 -11.55,-10.59 -28.88,-11.55 -43.32,-5.78 -30.81,10.59 -76.05,50.06 -99.16,74.13z"/>
     <path class="fil1 str1" d="M4178.26 3013.01c-39.47,91.45 7.7,194.46 13.47,293.62 6.74,119.37 -51.98,241.63 -150.18,309.99 -87.6,60.65 -196.38,79.9 -294.58,119.37 -98.2,40.44 -196.39,118.41 -201.2,225.27 -3.85,75.09 42.36,146.33 103.97,191.58 60.65,44.28 134.77,67.39 207.94,86.64 287.84,76.05 586.28,110.71 883.75,103.97 36.58,-0.96 74.13,-1.92 108.79,-13.47 113.59,-35.63 175.21,-157.89 207.94,-271.49 33.69,-114.55 55.83,-238.74 136.7,-325.38 61.61,-65.47 151.14,-103.01 200.24,-178.1 30.81,-47.18 42.36,-103.97 43.32,-159.81 2.89,-136.7 -53.91,-274.37 -154.03,-368.71 -147.29,-138.63 -340.8,-156.92 -531.41,-150.18 -162.69,4.81 -490.97,-56.8 -574.72,136.7z"/>
     <path class="fil1 str1" d="M5147.69 3134.31c-117.45,-103.97 -270.52,-120.34 -420.7,-114.56 -130.92,5.78 -384.11,-35.62 -446.69,119.37 -28.88,72.2 7.71,153.07 13.48,231.05 1.93,22.14 0,44.28 -2.89,66.42 -12.52,71.24 -51.99,137.66 -109.75,180.02 -67.39,49.1 -152.1,66.43 -229.12,99.16 -66.42,27.92 -132.85,75.09 -156.92,140.55 -4.81,14.44 -8.66,28.89 -8.66,44.29 -2.89,61.61 35.62,120.33 84.72,156.92 47.17,34.65 103.97,52.94 160.76,67.39 222.39,59.68 453.43,88.56 683.51,79.9 29.85,-0.97 59.69,-2.89 87.61,-12.52 90.49,-29.84 141.52,-127.07 168.47,-219.49 20.22,-67.39 33.69,-139.59 65.46,-201.21 11.56,-22.14 25.03,-42.36 41.4,-60.65 48.13,-52.94 118.41,-84.71 157.88,-145.36 25.03,-38.51 35.62,-84.72 37.55,-130.93 5.78,-112.63 -40.43,-225.26 -126.11,-300.35z"/>
     <path class="fil1 str1" d="M5011.95 3242.13c-87.61,-68.35 -199.28,-83.75 -310.95,-77.98 -99.16,4.82 -277.26,-16.36 -318.65,101.09 -18.29,53.91 8.66,111.67 14.44,168.47 1.93,16.36 0.96,32.73 -0.96,48.13 -7.71,51.99 -34.66,101.08 -75.1,133.81 -47.17,37.55 -107.82,52.95 -163.65,78.95 -51.03,23.1 -103.97,58.72 -123.23,109.74 -3.85,10.59 -6.74,22.14 -6.74,34.66 -1.92,48.13 27.92,94.34 66.43,123.23 32.73,25.03 73.16,37.54 112.63,49.09 155.96,44.29 320.58,65.47 482.31,55.84 22.14,-0.96 44.28,-3.85 65.46,-11.55 68.35,-25.03 107.82,-97.23 128.04,-166.55 15.41,-51.02 25.03,-104.93 48.14,-152.1 8.66,-16.37 18.29,-32.73 29.84,-46.21 34.66,-41.4 85.68,-67.39 115.52,-112.63 20.22,-29.85 29.85,-66.43 32.74,-102.05 9.63,-89.54 -24.07,-177.14 -96.27,-233.94z"/>
     <path class="fil1 str1" d="M4876.21 3350.91c-55.84,-35.62 -129,-47.17 -200.24,-42.36 -67.39,4.82 -171.36,2.89 -190.61,82.79 -8.67,34.66 8.66,70.28 14.44,106.86 1.92,10.59 1.92,20.22 0.96,30.81 -1.92,33.69 -17.33,65.46 -40.43,88.57 -26.96,26.95 -63.54,40.43 -98.2,58.72 -35.62,18.3 -75.09,42.36 -89.53,79.91 -2.89,7.7 -4.81,16.36 -4.81,25.03 -0.97,34.65 20.21,68.35 48.13,89.52 19.26,14.45 42.36,23.11 65.47,29.85 90.49,27.92 187.72,41.39 282.06,30.81 15.41,-1.93 29.85,-4.82 44.29,-10.59 45.24,-19.26 74.13,-66.43 88.57,-114.56 10.59,-34.66 15.4,-71.24 29.84,-103.01 4.81,-11.55 11.55,-22.14 18.29,-31.77 21.18,-28.88 52.95,-50.05 73.16,-79.9 14.45,-21.18 23.11,-47.17 26.96,-73.16 11.56,-67.4 -8.66,-129.97 -68.35,-167.52z"/>
     <path class="fil1 str1" d="M4587.4 3517.46c1.93,20.21 14.44,37.54 18.29,56.79 5.78,30.81 -13.47,61.62 -38.5,79.91 -20.22,14.44 -46.21,25.99 -54.88,49.09 -9.62,25.03 4.82,53.92 26,70.28 27.92,22.14 66.42,28.89 99.15,18.29 33.7,-10.58 60.65,-38.5 71.24,-72.2 5.78,-17.33 5.78,-36.58 11.56,-53.91 7.7,-24.07 23.1,-44.29 38.5,-65.47 31.77,-45.24 50.06,-123.22 -19.25,-141.51 -47.17,-11.55 -157.88,-19.25 -152.11,58.73z"/>
     <path class="fil1 str1" d="M5454.79 1822.16c-107.82,12.51 -219.49,32.73 -295.55,112.63 -175.21,183.87 -6.74,597.83 116.49,773.04 67.39,96.27 156.92,174.25 225.27,268.59 57.76,78.95 94.35,174.25 112.64,269.56 18.29,92.41 12.51,180.02 75.09,258.96 80.86,101.08 208.9,131.89 326.35,168.47 143.44,45.25 291.7,83.76 443.8,77.02 96.27,-4.82 202.17,-55.84 205.06,-164.62 1.92,-94.35 -64.5,-161.74 -116.49,-232.01 -61.61,-82.79 -89.53,-166.55 -97.23,-269.56 -12.52,-166.54 -25.03,-283.03 -123.23,-423.58 -67.39,-96.27 -99.16,-206.98 -99.16,-324.43 0.97,-98.2 31.77,-196.39 45.25,-293.62 23.1,-163.66 -17.33,-310.95 -206.98,-296.51 -205.06,14.45 -408.18,51.99 -611.31,76.06z"/>
     <path class="fil1 str1" d="M5461.53 1985.81c-153.07,62.58 -266.67,175.21 -224.31,352.35 23.1,96.27 78.94,194.47 144.41,267.63 48.13,52.95 111.67,98.2 181.94,118.41 92.42,26 189.65,6.74 283.04,3.85 49.1,-0.96 98.19,6.74 147.29,-0.96 32.73,-4.82 64.5,-16.37 88.57,-38.51 74.12,-66.42 50.06,-173.28 37.54,-259.93 -10.59,-75.09 -6.74,-151.14 0.97,-225.27 6.74,-65.46 27.92,-133.81 11.55,-198.31 -20.22,-82.79 -103.01,-123.23 -181.95,-131.89 -167.51,-19.25 -335.02,50.06 -489.05,112.63z"/>
     <path class="fil1 str1" d="M6010.26 2080.16c-19.25,-57.76 -77.02,-85.68 -133.81,-91.46 -122.27,-12.51 -243.57,39.47 -351.39,88.57 -48.13,22.14 -90.49,51.03 -119.37,88.57 -34.66,45.25 -49.1,102.05 -30.81,171.36 18.29,69.32 58.73,139.59 106.86,192.54 34.66,38.51 80.87,71.24 131.89,86.65 62.58,19.25 129,11.55 193.5,7.7 4.82,0 9.63,-0.97 13.48,-0.97 35.62,-1.92 72.2,1.93 106.86,-4.81 23.1,-4.81 45.24,-14.44 62.57,-30.81 50.06,-49.1 32.74,-126.11 22.15,-189.65 -8.67,-54.87 -6.74,-109.75 -2.89,-163.66 3.85,-51.02 16.37,-103.97 0.96,-154.03z"/>
     <path class="fil1 str1" d="M5884.15 2155.25c-16.37,-32.73 -50.06,-49.1 -85.68,-51.02 -75.09,-5.78 -150.18,28.88 -211.79,64.5 -27.92,16.36 -51.02,36.58 -65.47,60.65 -17.33,29.84 -23.1,64.5 -10.58,105.89 12.51,43.32 39.47,85.68 69.31,118.41 22.14,24.07 50.06,44.29 80.87,54.88 38.5,14.44 80.86,13.47 122.26,10.59 2.89,0 5.78,0 8.66,-0.97 23.11,-1.92 45.25,-2.89 66.43,-9.63 13.47,-4.81 25.99,-12.51 35.62,-24.06 25.99,-32.74 15.4,-78.95 7.7,-118.42 -6.74,-33.69 -7.7,-68.35 -6.74,-101.08 1.93,-38.5 6.74,-76.05 -10.59,-109.74z"/>
     <path class="fil1 str1" d="M5636.74 2291.95c-0.97,14.44 3.85,27.92 10.59,40.44 14.44,27.92 35.62,51.02 62.57,66.42 15.4,8.67 32.73,15.4 51.02,14.44 17.33,-1.92 35.62,-14.44 38.51,-31.76 4.81,-26 -16.37,-60.65 -18.29,-87.61 -1.93,-24.07 0,-48.13 -21.18,-64.5 -43.32,-31.77 -120.33,13.47 -123.22,62.57z"/>
     <path class="fil1 str1" d="M6094.98 2797.37c-91.45,4.81 -196.39,21.17 -281.11,56.79 -39.47,16.37 -76.05,42.36 -98.19,78.94 -39.47,65.47 -27.92,156.92 -21.18,230.09 6.74,79.9 25.03,161.73 64.5,232.01 56.8,100.12 163.66,152.1 267.63,189.65 75.09,26.95 154.03,45.24 233.93,50.06 77.02,3.84 192.54,16.36 236.83,-63.54 31.76,-57.77 0.96,-121.31 -33.7,-170.4 -52.94,-75.09 -95.3,-159.81 -115.52,-249.34 -10.59,-47.17 -15.4,-95.3 -13.48,-143.44 1.93,-46.21 6.74,-91.45 -20.21,-131.89 -44.29,-66.42 -129.01,-83.75 -219.5,-78.93z"/>
     <path class="fil1 str1" d="M5913.99 3035.15c-18.29,14.44 -38.5,27.92 -50.06,50.06 -20.21,39.47 -13.47,91.45 -7.7,134.78 5.78,44.28 17.33,88.57 40.44,127.07 32.73,53.91 93.38,82.79 151.14,102.05 43.32,14.44 87.6,22.14 131.89,22.14 43.32,0 105.89,1.92 130.92,-43.32 17.33,-30.81 2.89,-64.5 -14.44,-91.46 -25.99,-40.43 -45.24,-86.64 -55.83,-134.77 -4.82,-25.03 -7.71,-51.03 -5.78,-77.02 0.96,-25.03 0.96,-48.13 -10.59,-71.24 -26.95,-53.91 -75.09,-78.94 -132.85,-80.87 -60.65,-3.85 -126.11,22.15 -177.14,62.58z"/>
     <path class="fil1 str1" d="M6014.11 3217.1c-1.92,20.21 -3.85,41.39 3.85,59.68 8.67,20.22 28.89,34.66 51.03,36.59 22.14,1.92 44.28,-10.59 55.83,-28.89 9.63,-16.36 11.56,-35.62 11.56,-54.87 0,-105.89 -110.71,-120.33 -122.27,-12.51z"/>
     <path class="fil1 str1" d="M3427.36 5029.85c11.55,-58.73 21.18,-119.37 15.4,-179.06 -7.7,-82.8 -43.32,-165.59 -20.22,-245.49 24.07,-83.76 108.79,-137.66 194.47,-151.15 85.68,-13.47 173.28,6.74 257.04,27.92 209.86,53.91 418.77,116.49 635.37,133.82 146.34,11.55 294.59,2.89 439.96,-14.44 58.72,-6.74 125.15,-13.48 169.43,25.99 43.32,38.51 46.21,107.82 24.07,162.7 -22.14,53.91 -62.57,98.19 -97.23,145.36 -39.47,53.91 -71.24,113.6 -94.35,176.18"/>
     <path class="fil1 str1" d="M3515.93 5035.62c17.33,-74.12 22.14,-150.18 13.47,-226.23 -6.74,-58.73 -20.21,-123.23 11.56,-172.32 22.14,-34.66 61.61,-53.91 102.04,-59.69 40.44,-5.77 81.83,0 121.3,7.71 178.1,33.69 351.39,91.45 528.52,133.81 177.13,41.4 361.97,66.43 540.07,31.77 26.95,-4.82 56.8,-11.55 80.87,1.92 34.65,19.26 39.47,69.32 24.06,105.9 -15.4,36.58 -45.24,64.5 -66.42,98.2 -24.07,37.54 -37.55,82.79 -37.55,127.07"/>
     <path class="fil1 str1" d="M3657.44 5029.85c0.97,-62.58 -13.47,-127.08 -0.96,-188.69 42.36,-207.94 353.31,-78.94 476.53,-40.43 133.82,41.39 272.44,66.42 412.04,73.16 43.32,1.93 90.49,3.85 121.3,34.66 40.43,41.39 25.03,113.6 -9.63,159.8"/>
     <path class="fil1 str1" d="M3768.15 5066.43c2.89,-45.24 4.82,-90.49 7.7,-135.74 0.97,-9.63 0.97,-20.21 6.74,-27.92 7.71,-13.47 25.03,-18.29 39.47,-21.18 55.84,-10.58 113.6,-12.51 170.4,-5.77 41.4,4.81 82.79,15.4 123.23,25.99 69.31,17.33 138.62,34.66 206.97,51.99 19.26,4.81 38.51,9.62 53.91,23.1 29.85,26.95 22.15,83.76 -14.44,100.12"/>
     <path class="fil1 str1" d="M6840.1 186.54c-25.03,29.85 -48.13,61.62 -73.16,91.46 -74.13,91.46 -144.41,186.76 -218.53,278.22 -36.58,45.24 -73.16,90.49 -98.2,142.48 -59.68,124.18 -49.1,269.55 -81.83,402.4 -31.77,130.93 -105.89,255.12 -97.23,389.89 10.59,148.26 126.11,274.37 264.74,328.28 138.63,53.91 294.58,44.28 438.02,6.74 127.08,-32.73 253.19,-89.53 336.94,-190.62 83.76,-101.08 115.53,-253.18 48.14,-366.78 -35.62,-60.65 -95.31,-103.97 -143.44,-155.96 -82.79,-89.53 -130.93,-208.91 -139.6,-330.2 -4.81,-61.61 0.97,-123.23 17.33,-182.92 19.26,-69.31 56.8,-129.96 90.5,-192.53 50.06,-95.31 72.2,-210.84 -18.29,-288.81 -62.58,-54.87 -147.29,-57.76 -220.46,-21.18 -41.39,21.19 -74.12,53.91 -104.93,89.53z"/>
     <path class="fil1 str2" d="M6573.44 649.6c-30.81,36.58 -61.61,75.09 -82.79,118.41 -50.06,103.01 -41.4,226.24 -66.43,336.94 -23.1,103.98 -77.97,202.17 -69.31,308.07 9.63,116.48 99.16,216.6 206.98,260.89 107.82,44.28 229.12,38.5 343.68,13.47 105.89,-24.07 217.56,-73.16 284.95,-159.8 63.54,-81.83 85.68,-200.24 32.74,-289.78 -28.89,-48.13 -75.1,-82.79 -113.6,-123.22 -64.5,-70.28 -103.01,-162.7 -111.68,-256.08 -3.85,-47.17 -0.96,-95.3 10.59,-141.51 13.48,-53.92 41.4,-101.09 65.47,-150.18 10.58,-22.14 20.21,-46.21 25.99,-70.28 12.52,-55.84 5.78,-111.68 -41.4,-155 -47.17,-43.32 -111.67,-47.17 -166.54,-23.1 -31.77,14.44 -57.76,35.62 -80.87,60.65 -19.25,20.22 -37.54,43.32 -57.76,64.5 -21.18,23.11 -42.36,46.21 -63.54,70.28 -39.47,42.36 -77.98,89.53 -116.48,135.74z"/>
     <path class="fil1 str3" d="M6597.5 742.98c-25.99,28.88 -50.06,58.73 -67.39,94.34 -39.47,82.79 -34.65,183.88 -50.05,270.52 -14.45,76.05 -50.06,149.22 -42.36,226.23 8.66,84.72 73.16,158.85 150.18,193.5 77.01,34.66 164.62,33.7 250.3,19.26 85.68,-15.4 181.94,-55.84 232.97,-128.04 43.32,-62.58 56.8,-147.29 16.36,-212.76 -21.18,-35.62 -54.87,-60.65 -82.79,-91.45 -47.17,-50.06 -75.09,-115.52 -82.79,-181.95 -3.85,-33.69 -2.89,-68.35 2.89,-101.08 7.7,-38.51 25.03,-72.2 40.44,-107.82 6.73,-16.37 12.51,-33.69 15.4,-51.02 7.7,-39.48 1.92,-79.91 -29.85,-111.68 -32.73,-31.77 -75.09,-36.58 -112.63,-24.07 -22.14,6.74 -39.47,17.33 -56.8,30.81 -14.44,11.55 -27.92,24.07 -42.36,36.58 -16.36,13.48 -32.73,26.96 -50.06,43.32 -30.81,28.89 -60.65,61.62 -91.46,95.31z"/>
     <path class="fil1 str4" d="M6622.53 836.36c-21.18,20.22 -39.47,43.32 -51.98,70.28 -29.85,62.58 -26.96,141.52 -34.66,205.05 -5.78,48.14 -22.14,95.31 -14.44,144.41 8.66,53.91 46.21,101.08 93.38,126.11 46.21,25.03 101.08,29.84 155.96,25.03 64.5,-5.78 147.29,-37.55 180.99,-97.23 24.06,-42.36 26.95,-94.35 0.96,-135.74 -14.44,-22.14 -34.66,-39.47 -52.95,-58.73 -28.88,-30.8 -47.17,-69.31 -54.87,-107.82 -3.85,-20.21 -5.78,-40.43 -3.85,-59.68 1.92,-23.11 8.66,-43.32 14.44,-65.47 2.89,-9.63 4.81,-20.21 5.78,-30.81 2.89,-24.06 -0.97,-48.13 -18.29,-68.35 -17.33,-20.21 -39.47,-25.99 -58.73,-25.99 -11.55,0 -21.18,0 -31.77,1.93 -8.66,1.92 -17.33,4.81 -26.95,8.66 -10.59,3.85 -22.14,8.66 -35.62,15.4 -23.11,13.48 -46.22,32.73 -67.4,52.95z"/>
     <path class="fil1 str5" d="M6741.91 1030.83c-4.81,-16.37 -8.66,-33.7 -11.55,-51.99 -3.85,-24.07 -13.48,-52.95 -40.44,-57.76 -14.44,-2.89 -29.84,1.92 -42.36,9.63 -52.95,36.58 -59.68,126.11 -54.87,184.83 4.81,66.43 36.58,142.48 110.71,152.11 44.28,5.78 114.56,-19.26 128.04,-65.47 9.63,-33.69 -15.4,-61.61 -37.55,-83.75 -25.99,-28.88 -41.39,-55.84 -51.98,-87.6z"/>
     <path class="fil1 str1" d="M8575.84 993.28c-132.86,32.73 -259.93,81.83 -392.78,116.49 -107.82,27.92 -216.61,49.1 -327.32,63.54 -90.49,11.55 -185.8,14.44 -250.3,89.53 -81.83,96.27 -72.2,227.19 4.82,323.46 142.47,178.1 446.69,199.28 655.59,209.87 310.95,15.4 730.68,-75.09 807.7,-429.36 30.8,-139.59 3.85,-337.91 -151.15,-393.74 -102.04,-36.59 -209.86,-10.59 -311.91,12.51 -11.55,1.92 -23.1,4.81 -34.65,7.7z"/>
     <path class="fil1 str1" d="M8251.41 1164.64c-88.57,23.11 -180.03,39.47 -271.48,51.02 -75.09,9.63 -154.03,12.52 -208.91,72.21 -67.39,74.12 -62.57,179.06 -2.89,257.04 35.62,46.21 85.68,77.01 141.52,100.12 124.19,50.06 277.25,60.65 397.59,65.46 247.41,11.55 578.58,-58.72 647.89,-335.98 28.89,-112.63 12.52,-273.41 -115.52,-318.65 -80.86,-28.88 -166.54,-8.66 -248.38,9.63 -9.62,1.92 -19.25,3.85 -27.91,6.74 -105.9,25.98 -207.94,64.49 -311.91,92.41z"/>
     <path class="fil1 str1" d="M8318.8 1219.51c-69.32,18.29 -142.48,29.85 -214.68,39.47 -60.65,7.71 -122.26,11.56 -166.55,55.84 -51.99,52.95 -53.91,131.89 -11.55,189.65 26.95,36.58 67.39,59.69 111.67,75.09 98.2,35.62 215.65,42.36 309.99,46.21 184.84,6.74 426.47,-42.36 489.05,-242.6 26.95,-86.64 21.18,-208.9 -78.95,-244.52 -59.68,-21.18 -123.22,-6.74 -184.83,6.74 -6.74,1.92 -14.44,2.89 -21.18,4.81 -79.9,20.22 -156.92,49.1 -232.97,69.31z"/>
     <path class="fil1 str1" d="M8386.19 1274.39c-50.06,13.47 -104.94,20.21 -158.85,26.95 -45.24,5.78 -90.49,9.63 -124.18,38.51 -36.59,31.76 -45.25,83.75 -19.26,123.22 17.33,26.96 49.1,41.4 80.87,50.06 71.24,20.22 153.07,25.03 223.34,26.96 121.3,2.88 276.29,-26 329.24,-149.22 26,-59.69 29.85,-144.41 -43.32,-169.44 -38.5,-13.47 -79.9,-5.77 -121.3,3.85 -4.81,0.97 -9.63,1.93 -14.44,2.89 -51.98,14.45 -103.97,33.7 -152.1,46.22z"/>
     <path class="fil1 str1" d="M8269.7 1365.84c-20.21,11.56 -37.54,35.62 -26.95,56.8 8.66,18.29 30.81,23.11 51.02,25.99 45.25,5.78 90.49,8.67 136.7,7.71 57.77,-0.97 129.97,-7.71 170.4,-55.84 26.95,-31.77 38.51,-79.9 -7.7,-95.31 -39.47,-12.51 -100.12,13.48 -137.67,24.07 -58.72,15.4 -134.78,8.67 -185.8,36.58z"/>
     <path class="fil1 str1" d="M1992.95 3548.26c13.47,-10.58 26.95,-21.18 39.47,-32.73 109.75,-99.15 197.35,-226.23 333.09,-291.69 321.54,-155 889.53,33.69 1016.6,384.11 76.05,207.94 -25.03,419.73 -125.15,598.8 -60.65,109.74 -124.18,228.15 -130.92,356.19 -6.74,126.11 7.7,257.04 -47.18,375.45 -102.04,224.31 -369.67,315.77 -591.09,374.49 -626.71,165.58 -1378.57,-83.75 -1526.83,-774 -9.63,-42.36 -15.4,-85.68 -20.21,-129 -18.29,-190.62 -16.37,-413 73.16,-586.28 86.64,-167.51 267.63,-173.29 432.25,-158.84 196.39,18.28 385.07,7.69 546.81,-116.5z"/>
     <path class="fil1 str1" d="M2103.66 3615.65c90.49,-79.9 161.73,-182.91 273.4,-235.86 263.78,-125.15 720.09,29.85 832.73,310.95 70.28,176.18 -7.7,352.35 -93.38,504.45 -51.99,92.42 -106.86,191.58 -116.49,298.44 -9.63,105.89 -3.85,214.68 -49.1,313.84 -87.6,188.68 -304.21,274.36 -490.97,325.38 -137.66,37.55 -283.03,48.14 -422.62,32.74 -143.44,-15.4 -280.15,-57.76 -398.56,-125.15 -204.09,-115.53 -354.27,-302.29 -405.29,-567.99 -6.74,-35.62 -11.56,-71.24 -14.45,-106.86 -12.51,-156.92 -11.55,-338.87 60.66,-482.31 69.31,-138.63 214.68,-146.33 346.56,-137.66 156.93,10.59 310.96,-0.97 444.77,-103.01 10.6,-8.67 22.15,-17.33 32.74,-26.96z"/>
     <path class="fil1 str1" d="M2173.93 3715.77c70.28,-61.61 127.08,-139.59 213.72,-179.06 205.06,-94.34 550.66,26 647.9,237.79 65.46,143.44 10.58,283.99 -60.65,409.14 -42.36,75.09 -88.57,155.96 -102.05,241.64 -13.48,85.68 -14.44,173.28 -51.99,252.22 -73.16,152.11 -238.75,232.97 -391.81,276.29 -109.75,30.81 -227.2,37.55 -336.94,22.14 -112.64,-16.36 -218.53,-55.83 -305.18,-112.63 -151.14,-99.16 -251.26,-245.49 -283.03,-455.35 -3.85,-27.92 -6.74,-56.8 -8.66,-84.72 -7.71,-123.23 -6.74,-265.7 48.13,-378.34 52.95,-108.78 161.73,-119.37 261.85,-117.45 119.38,2.89 236.83,-10.58 342.72,-89.52 8.66,-7.71 17.33,-15.41 25.99,-22.15z"/>
     <path class="fil1 str1" d="M2244.21 3815.89c50.06,-42.36 92.42,-96.27 154.03,-123.22 147.29,-64.5 384.11,21.18 463.05,164.62 61.62,111.67 27.92,216.6 -28.88,314.8 -33.69,57.76 -71.24,119.37 -87.6,183.87 -16.37,64.5 -25.03,130.93 -54.88,191.58 -58.72,116.48 -173.28,191.57 -291.69,227.19 -81.83,25.03 -170.4,27.92 -251.26,11.56 -82.79,-16.37 -156.92,-52.95 -212.76,-100.13 -97.23,-81.83 -148.25,-189.65 -159.81,-343.68 -1.92,-21.18 -1.92,-41.39 -2.89,-63.53 -1.92,-89.53 -1.92,-192.54 35.63,-274.37 35.62,-78.94 108.78,-92.42 177.13,-96.27 81.83,-4.81 163.66,-19.25 241.63,-76.05 5.79,-6.74 12.52,-11.55 18.3,-16.37z"/>
     <path class="fil1 str1" d="M2314.49 3916.01c30.8,-24.07 56.79,-52.94 94.34,-67.39 89.53,-35.62 222.38,15.41 279.18,91.46 58.73,79.9 45.24,149.21 3.85,219.49 -24.07,40.44 -53.91,83.76 -73.16,127.08 -20.22,44.28 -35.63,89.53 -57.77,129.96 -44.28,80.87 -107.82,150.18 -192.54,178.1 -53.91,18.29 -114.55,17.33 -165.58,0 -51.98,-17.33 -95.3,-51.02 -120.33,-88.57 -44.29,-65.46 -44.29,-132.85 -37.55,-231.04 0.96,-13.48 2.89,-26.96 2.89,-41.4 2.89,-55.84 2.89,-118.41 22.14,-171.36 18.29,-49.1 54.87,-65.46 92.42,-76.05 43.32,-12.52 90.49,-26.96 140.55,-62.58 3.85,-1.92 7.71,-4.81 11.56,-7.7z"/>
     <path class="fil1 str1" d="M2323.15 4190.38c-18.29,52.95 -82.79,82.79 -94.34,138.63 -5.78,27.92 5.77,57.76 27.91,76.05 22.15,17.33 53.92,22.14 79.91,10.59 50.06,-21.18 62.57,-83.76 92.42,-129 50.05,-76.05 226.23,-179.06 83.75,-261.86 -36.58,-22.14 -89.53,-27.91 -128.04,-7.7 -72.2,37.55 -40.43,109.75 -61.61,173.29z"/>
     <path class="fil1 str1" d="M2488.74 1891.47c-31.77,88.57 -83.76,168.47 -131.89,250.3 -99.16,169.44 -182.92,350.42 -212.76,543.93 -15.4,96.26 -9.63,210.83 68.35,269.55 37.55,27.92 86.64,37.54 133.81,39.47 84.72,3.85 173.29,-13.48 238.75,-67.39 96.27,-78.94 120.34,-213.72 147.29,-335.98 33.7,-155 80.87,-307.1 159.81,-444.77 78.94,-136.7 190.62,-258 331.17,-331.16 129,-67.39 276.29,-90.5 416.85,-129.97 140.55,-39.47 283.99,-100.12 369.67,-217.57 50.06,-69.31 76.05,-167.51 30.81,-239.71 -22.14,-36.58 -58.73,-60.65 -94.35,-84.71 -140.55,-94.35 -284.95,-189.65 -447.65,-237.79 -186.76,-54.87 -392.78,-43.32 -571.84,34.66 -150.18,64.5 -356.19,208.91 -402.4,376.41 -19.26,70.28 3.85,154.03 6.73,225.27 3.85,117.45 -1.92,237.79 -42.35,349.46z"/>
     <path class="fil1 str1" d="M2746.74 1210.85c-33.7,29.84 -65.47,62.58 -85.68,103.01 -41.4,80.86 -31.77,177.13 -15.41,266.66 9.63,56.8 22.14,113.6 35.62,169.44 13.48,54.87 40.44,120.34 97.24,127.07 33.69,3.85 65.46,-14.44 94.34,-31.76 101.08,-60.65 207.94,-113.6 317.69,-157.89 109.75,-43.32 223.34,-78.94 338.87,-103.97 108.78,-24.07 254.15,-51.98 286.88,-177.13 22.14,-82.79 -9.63,-203.13 -70.28,-263.78 -129,-129 -433.21,-139.59 -597.83,-114.56 -147.29,23.1 -289.77,84.71 -401.44,182.91z"/>
     <path class="fil1 str1" d="M3147.22 1126.13c-104.94,17.33 -206.02,60.65 -285.92,129 -24.07,21.18 -47.18,44.29 -62.58,71.24 -31.77,56.8 -25.99,123.23 -20.21,184.84 3.85,43.32 8.66,89.53 23.1,132.85 12.52,38.51 32.73,83.75 74.13,88.57 24.07,2.89 47.17,-9.63 68.35,-22.14 8.66,-4.82 17.33,-9.63 25.99,-14.44 66.43,-37.55 133.82,-72.21 204.09,-101.09 76.06,-30.8 156.92,-55.83 240.68,-75.09 77.01,-17.33 175.21,-39.47 206.98,-123.22 22.14,-60.65 11.55,-145.37 -38.51,-193.5 -95.31,-90.5 -311.92,-97.23 -436.1,-77.02z"/>
     <path class="fil1 str1" d="M3147.22 1224.33c-61.61,11.55 -122.26,36.58 -170.4,75.09 -15.4,11.55 -28.88,25.03 -39.47,40.43 -22.14,31.77 -21.18,69.32 -24.07,103.01 -2.89,29.84 -3.85,66.43 9.63,96.27 10.59,23.1 25.03,47.17 51.02,49.1 15.4,0.96 29.85,-5.78 43.32,-12.52 5.78,-2.89 10.59,-5.78 16.37,-8.66 41.39,-22.14 82.79,-46.21 126.11,-65.47 41.39,-17.33 91.45,-32.73 142.48,-45.24 46.21,-11.55 100.12,-26.96 126.11,-69.32 24.07,-40.43 32.73,-87.6 -6.74,-123.22 -60.65,-53.91 -190.61,-54.88 -274.36,-39.47z"/>
     <path class="fil1 str1" d="M3046.13 1373.54c-14.44,16.37 -19.25,43.32 -3.85,58.73 13.48,13.48 35.62,12.52 52.95,4.81 17.33,-7.7 31.77,-20.21 48.13,-29.84 13.48,-6.74 56.8,-17.33 89.53,-31.77 32.74,-14.44 54.88,-31.77 25.03,-52.95 -24.07,-17.33 -68.35,-13.47 -111.67,-0.96 -42.36,13.48 -83.75,33.69 -100.12,51.98z"/>
     <path class="fil1 str1" d="M2285.6 2442.13c-37.54,88.57 -67.39,181.95 -73.16,278.22 -1.92,35.62 -0.96,73.17 18.29,103.01 25.03,39.47 74.13,56.8 120.34,59.68 114.56,6.74 230.08,-64.5 274.36,-169.43 22.14,-51.99 27.92,-107.82 37.55,-163.66 15.4,-90.49 40.44,-179.06 76.05,-264.74 32.73,-78.94 105.9,-287.84 -54.87,-274.36 -123.23,10.59 -233.93,142.48 -297.47,237.78 -39.47,60.65 -72.2,126.11 -101.09,193.5z"/>
     <path class="fil1 str1" d="M2486.81 2303.5c-50.06,96.27 -99.16,193.51 -132.86,297.48 -6.74,20.21 -12.51,41.39 -10.58,62.57 1.92,21.18 12.51,42.36 30.8,51.99 25.03,11.55 54.88,0 76.06,-17.33 47.17,-38.51 68.34,-99.16 80.86,-157.88 11.55,-58.73 16.37,-120.34 38.51,-176.18 15.4,-39.47 79.9,-112.63 23.1,-143.44 -55.83,-31.77 -86.64,45.25 -105.89,82.79z"/>
     <path class="fil1 str1" d="M1199.69 194.25c98.19,148.25 512.15,518.89 667.14,605.53 147.3,82.79 307.1,159.8 474.61,152.11 195.43,-8.67 365.82,-129.97 547.77,-200.24 148.26,-57.76 309.03,-81.83 467.87,-71.24 112.64,7.7 224.31,31.77 335.98,25.03 189.65,-11.55 366.79,-117.45 483.28,-266.67 116.48,-150.18 173.28,-340.79 176.17,-530.44"/>
     <path class="fil1 str1" d="M1360.46 138.41c93.38,131.89 450.54,450.54 593.98,526.59 138.63,72.21 284.96,129 440.91,119.38 169.44,-10.59 316.73,-110.71 475.57,-170.4 129,-48.13 267.63,-69.31 405.3,-60.65 97.23,5.78 193.5,25.99 290.73,20.21 163.66,-10.58 315.76,-101.08 420.7,-226.23 110.71,-131.89 172.32,-301.32 181.94,-474.61"/>
     <path class="fil1 str1" d="M1520.27 81.61c89.53,115.52 388.92,382.19 520.81,447.65 129,63.54 263.78,99.16 406.26,86.65 142.47,-12.52 268.59,-92.42 402.4,-140.55 108.79,-39.47 227.2,-55.84 342.72,-50.06 81.83,4.81 163.66,20.21 245.49,14.44 138.63,-9.63 265.7,-84.72 358.12,-185.8 104.94,-113.6 172.32,-261.86 187.73,-417.81"/>
     <path class="fil1 str1" d="M1680.07 25.78c84.72,98.19 327.32,312.87 448.62,367.75 120.34,53.91 242.6,69.31 371.6,54.87 115.52,-13.48 219.49,-73.17 330.2,-110.71 89.53,-29.84 185.8,-43.32 280.14,-38.51 67.39,2.89 133.82,14.44 201.21,9.63 112.63,-7.7 215.64,-67.39 295.54,-144.41 99.16,-96.26 171.36,-222.38 192.54,-361.97"/>
     <path class="fil1 str1" d="M1840.84 -30.06c80.87,81.83 266.67,244.52 375.45,287.84 111.67,44.29 221.42,39.47 336.94,22.14 89.53,-13.47 171.36,-54.87 257.04,-80.86 70.28,-21.18 144.41,-29.85 217.57,-27.92 51.99,1.92 103.97,8.66 155.96,4.81 87.6,-6.74 167.51,-50.06 232.97,-103.97 95.31,-77.97 171.36,-182.91 198.31,-305.17"/>
     <path class="fil1 str1" d="M2000.65 -86.86c77.01,65.46 206.02,176.17 303.25,208.9 103,34.66 200.24,11.56 303.25,-10.58 62.57,-13.48 123.22,-35.62 184.83,-51.03 50.06,-11.55 103.01,-17.33 155,-16.36 36.58,0 73.16,2.89 110.71,0 61.61,-4.82 119.37,-31.77 170.39,-63.54 92.42,-57.76 170.4,-142.48 204.09,-248.38"/>
     <path class="fil1 str1" d="M2161.42 -142.7c72.2,49.1 144.4,106.86 229.12,129 94.34,25.03 179.06,-14.44 268.59,-42.36 124.19,-38.5 254.15,-11.55 377.38,-53.91 92.42,-31.77 169.43,-103.01 208.9,-192.54"/>
     <path class="fil1 str1" d="M1374.9 813.26c102.05,87.6 217.57,159.81 339.83,213.72 100.12,44.28 206.98,77.01 295.55,142.47 304.21,224.31 270.51,658.49 112.63,954.03 -70.28,130.93 -150.18,258 -188.69,401.44 -33.69,127.08 -30.8,259.93 -42.36,390.86 -18.29,219.49 -86.64,474.61 -347.53,477.49 -94.34,0.97 -188.69,-28.88 -265.7,-83.75"/>
     <path class="fil1 str1" d="M1357.57 954.77c83.75,82.79 183.87,151.15 290.73,205.05 86.65,44.29 178.1,79.91 252.23,140.56 249.34,206.97 211.79,579.54 80.86,840.42 -55.83,110.71 -121.3,217.57 -151.14,337.91 -26.95,105.9 -25.03,217.57 -34.66,327.31 -16.36,192.54 -79.9,412.04 -300.36,428.4 -80.86,5.78 -162.69,-13.47 -231.04,-53.91"/>
     <path class="fil1 str1" d="M1340.24 1097.25c65.47,77.98 151.15,142.48 241.64,195.43 73.16,43.32 149.21,81.83 209.86,139.59 195.43,188.68 152.11,499.64 48.14,727.79 -41.4,90.5 -91.46,177.14 -113.6,274.37 -20.22,85.68 -19.26,175.21 -26.95,262.81 -14.45,166.55 -73.17,350.42 -254.16,378.34 -67.38,10.59 -136.7,1.93 -195.42,-24.07"/>
     <path class="fil1 str1" d="M1323.88 1239.73c47.17,73.16 118.41,133.81 191.57,186.76 59.69,43.32 120.34,82.79 166.55,138.63 141.52,169.43 92.42,419.73 16.36,615.16 -26.95,69.31 -61.61,135.74 -77.01,209.87 -13.48,65.46 -12.52,132.85 -18.29,199.27 -12.52,139.6 -66.43,288.81 -206.98,329.25 -53.91,15.4 -109.75,17.33 -160.77,5.77"/>
     <path class="fil1 str1" d="M1306.55 1382.21c29.84,68.35 85.68,124.18 142.47,177.13 46.21,42.36 92.42,84.72 124.19,136.7 88.57,148.26 31.77,338.87 -16.37,501.57 -14.44,48.13 -31.76,95.3 -39.47,146.33 -6.74,44.28 -6.74,90.49 -10.58,135.73 -10.59,112.64 -58.73,228.16 -159.81,279.18 -40.44,20.22 -83.76,32.74 -126.11,35.63"/>
     <path class="fil1 str1" d="M1290.18 1524.69c20.22,115.52 139.59,191.57 174.25,303.25 39.47,126.11 -35.62,257.04 -48.13,388.92 -4.82,51.03 0,103.01 -5.78,154.03 -13.48,124.19 -93.39,238.75 -204.09,294.59"/>
     <path class="fil1 str1" d="M7057.67 5080.87c16.37,-106.86 -2.89,-215.64 -33.69,-318.65 -33.69,-111.67 -79.9,-204.09 -43.32,-321.54 33.69,-106.86 105.89,-202.17 202.16,-260.89 201.21,-122.26 435.14,-1.92 649.82,-6.74 202.17,-4.81 395.67,-103 596.87,-129 233.94,-29.84 413.96,96.27 491.94,314.8 81.83,230.09 58.72,531.41 240.67,714.32 62.58,62.58 143.44,103.01 223.35,139.59"/>
     <path class="fil1 str1" d="M7186.67 5075.09c12.52,-94.34 -4.81,-188.68 -31.77,-279.18 -28.88,-98.19 -69.31,-179.06 -36.58,-281.1 30.81,-94.34 98.2,-174.25 183.87,-223.34 174.25,-99.16 373.53,1.92 558.36,0 178.1,-1.93 348.5,-86.65 525.64,-108.79 204.09,-25.99 365.82,80.87 436.09,270.52 72.21,195.42 55.84,450.54 206.98,611.31 53.91,57.76 121.3,99.15 188.69,135.73"/>
     <path class="fil1 str1" d="M7315.67 5070.28c8.66,-80.87 -6.74,-162.7 -28.88,-240.67 -24.07,-83.76 -57.76,-154.03 -28.88,-240.68 27.91,-81.83 90.49,-147.29 165.58,-185.8 147.29,-76.05 311.91,3.85 466.9,5.78 154.03,1.92 301.33,-69.31 455.36,-88.57 175.21,-22.14 317.69,64.5 380.26,226.23 62.57,161.74 53.91,370.64 172.32,508.3 46.21,52.95 99.16,94.35 154.03,131.89"/>
     <path class="fil1 str1" d="M7444.67 5065.47c4.82,-67.39 -7.7,-135.74 -26.95,-202.17 -20.21,-69.32 -46.21,-129 -21.18,-200.24 24.07,-69.31 82.79,-119.37 147.29,-147.29 120.34,-52.95 251.26,9.63 375.45,12.52 129,2.88 255.12,-52.95 384.12,-68.35 145.36,-17.33 269.55,49.09 325.39,181.94 52.95,127.08 50.06,290.74 137.66,404.33 37.55,48.14 77.98,90.5 119.37,128.04"/>
     <path class="fil1 str1" d="M7573.67 5059.69c0.97,-54.87 -9.62,-109.75 -24.06,-162.69 -15.41,-54.88 -34.66,-104.94 -14.45,-159.81 21.18,-56.8 75.1,-91.46 129.97,-109.75 92.42,-31.77 189.65,13.48 283.99,18.29 104.94,4.81 207.94,-35.62 312.88,-47.17 116.49,-13.48 221.42,33.69 269.55,137.66 43.32,93.38 45.25,212.75 103.01,301.32 28.88,44.29 55.84,85.68 85.68,124.19"/>
     <path class="fil1 str1" d="M7702.68 5054.88c-2.89,-41.4 -11.56,-82.79 -22.15,-124.19 -10.58,-40.43 -23.1,-79.9 -6.73,-119.37 19.25,-44.29 66.42,-64.5 111.67,-72.2 63.54,-10.59 128.04,18.29 192.54,25.03 80.87,7.7 160.77,-19.26 242.6,-26.96 86.64,-8.66 172.32,18.29 213.72,93.38 32.73,59.69 39.47,136.71 69.31,197.36 20.22,40.43 33.69,81.83 51.02,120.33"/>
     <path class="fil1 str1" d="M7830.71 5050.06c-6.73,-27.91 -13.47,-56.79 -20.21,-84.71 -5.78,-26 -11.55,-54.87 0.96,-78.94 16.37,-31.77 57.76,-40.44 93.39,-34.66 34.65,5.78 67.39,23.1 102.04,30.81 55.84,12.51 114.56,-1.93 171.36,-6.74 56.8,-4.81 122.26,3.85 157.88,49.1 21.18,25.99 28.89,60.65 34.66,94.34 6.74,38.51 12.52,77.02 16.37,116.49"/>
    </g>
   </g>
  </g>
  <polygon class="fil2" points="4185.35,59.81 5448.32,977.41 6711.29,1895.01 6228.88,3379.72 5746.47,4864.43 4185.35,4864.43 2624.24,4864.43 2141.83,3379.72 1659.42,1895.01 2922.39,977.41 "/>
  <g id="_2275749760352">
   <path class="fil3" d="M61.43 7512.87l33.45 -15.46c3.19,11.49 9.02,20.27 17.51,26.29 8.42,6.07 19.24,9.08 32.42,9.08 12.51,0 22.38,-3.49 29.78,-10.4 7.33,-6.92 11,-16.18 11,-27.8 0,-15.16 -12.57,-28.69 -37.77,-40.54 -3.55,-1.74 -6.26,-3.07 -8.12,-3.85 -28.46,-13.9 -47.4,-26.41 -56.85,-37.66 -9.45,-11.25 -14.2,-24.96 -14.2,-41.14 0,-21.06 7.16,-38.08 21.42,-51.14 14.26,-13.05 33.02,-19.54 56.18,-19.54 19.01,0 34.95,3.66 47.77,11 12.81,7.34 21.65,17.87 26.58,31.58l-32.72 16.97c-5.17,-8.12 -10.83,-14.08 -17.02,-17.81 -6.2,-3.79 -13.3,-5.65 -21.3,-5.65 -11.25,0 -20.27,2.95 -26.89,8.84 -6.67,5.84 -9.98,13.71 -9.98,23.58 0,15.52 14.61,30.02 43.79,43.37 2.22,1.09 3.97,1.93 5.29,2.47 25.51,11.79 43.01,23.28 52.52,34.47 9.5,11.25 14.25,25.26 14.25,42.05 0,24.42 -7.69,43.85 -23.1,58.23 -15.4,14.37 -36.21,21.59 -62.44,21.59 -21.95,0 -39.94,-5.05 -54.02,-15.16 -14.01,-10.11 -23.22,-24.54 -27.55,-43.37zm206.39 -187.62c0,-6.44 2.41,-12.03 7.16,-16.78 4.75,-4.7 10.41,-7.04 17.03,-7.04 6.79,0 12.51,2.28 17.02,6.79 4.51,4.52 6.8,10.23 6.8,17.03 0,6.86 -2.29,12.57 -6.86,17.2 -4.63,4.64 -10.29,6.98 -16.96,6.98 -6.62,0 -12.28,-2.41 -17.03,-7.16 -4.75,-4.75 -7.16,-10.4 -7.16,-17.02zm5.06 239.29l0 -167.1 38.25 0 0 167.1 -38.25 0zm73.69 -30.31l31.76 -17.33c2.34,8.36 6.68,14.74 13.05,19.07 6.31,4.39 14.5,6.56 24.42,6.56 8.61,0 15.34,-1.99 20.21,-5.9 4.88,-3.97 7.28,-9.32 7.28,-16.18 0,-9.02 -8.66,-16.78 -26.04,-23.28 -5.84,-2.11 -10.41,-3.85 -13.54,-5.29 -17.87,-7.4 -30.37,-14.92 -37.48,-22.56 -7.09,-7.58 -10.64,-16.9 -10.64,-27.79 0,-14.92 5.83,-27.01 17.5,-36.34 11.73,-9.26 27.2,-13.89 46.44,-13.89 12.94,0 24,2.41 33.21,7.15 9.2,4.76 15.94,11.5 20.15,20.34l-27.13 18.71c-1.98,-5.3 -5.47,-9.51 -10.47,-12.63 -4.99,-3.13 -10.77,-4.7 -17.32,-4.7 -7.28,0 -13.12,1.75 -17.51,5.18 -4.39,3.48 -6.61,8.12 -6.61,13.89 0,8.67 9.86,16.61 29.53,23.76 6.26,2.23 11.07,4.09 14.44,5.48 15.4,6.13 26.41,12.99 33.08,20.69 6.62,7.7 9.93,17.33 9.93,28.81 0,16.73 -6.07,29.78 -18.17,39.22 -12.09,9.45 -28.75,14.2 -50.04,14.2 -16.31,0 -29.9,-3.06 -40.67,-9.14 -10.83,-6.14 -19.25,-15.46 -25.38,-28.03zm181.84 30.31l0 -133.54 -29.23 0 0 -33.56 29.23 0 0 -63.17 38.26 0 0 63.17 29.24 0 0 33.56 -29.24 0 0 133.54 -38.26 0zm261.38 -77.96l-133.55 0c0.97,15.64 5.6,27.86 13.96,36.64 8.3,8.78 19.43,13.17 33.32,13.17 12.33,0 22.62,-2.59 30.8,-7.76 8.25,-5.17 15.4,-13.53 21.54,-25.08l32.12 17.98c-9.38,16.85 -20.99,29.3 -34.89,37.54 -13.83,8.24 -30.13,12.33 -48.79,12.33 -26.82,0 -48.12,-8.18 -64,-24.48 -15.82,-16.37 -23.76,-38.14 -23.76,-65.39 0,-26.23 8.18,-47.7 24.61,-64.6 16.36,-16.85 37.41,-25.27 63.15,-25.27 26.9,0 47.89,7.7 62.93,23.1 15.04,15.34 22.56,36.93 22.56,64.61l0 7.21zm-39.71 -25.62c-1.5,-11.97 -6.07,-21.12 -13.71,-27.37 -7.64,-6.32 -18.11,-9.45 -31.34,-9.45 -12.58,0 -22.68,3.07 -30.32,9.15 -7.58,6.13 -12.93,15.33 -16,27.67l91.37 0zm117.73 103.58l-38.26 0 0 -167.1 35.97 0 0 27.43c7.64,-11.67 16.3,-20.22 25.99,-25.57 9.68,-5.36 21.11,-8 34.29,-8 13.05,0 23.87,2.71 32.42,8.18 8.6,5.47 15.1,13.84 19.55,25.02 8.84,-11.55 18.23,-19.97 28.15,-25.26 9.93,-5.3 21.24,-7.94 33.93,-7.94 11.01,0 20.63,2.04 28.87,6.07 8.24,4.1 14.62,9.99 19.19,17.75 2.17,3.61 3.73,8 4.69,13.05 1.02,5.06 1.51,12.28 1.51,21.66l0 13.41 0 101.3 -38.26 0 0 -85.77c0,-22.44 -2.41,-37.24 -7.16,-44.34 -4.75,-7.1 -13.23,-10.65 -25.45,-10.65 -15.03,0 -25.74,4.82 -32.12,14.38 -6.43,9.56 -9.62,26.34 -9.62,50.29l0 76.09 -38.62 0 0 -85.77c0,-20.7 -2.47,-35.02 -7.46,-43.02 -4.99,-8 -13.66,-11.97 -25.87,-11.97 -7.52,0 -14.38,1.69 -20.57,5.12 -6.26,3.43 -11.19,8.12 -14.86,14.07 -2.35,3.91 -3.97,8.66 -4.93,14.26 -0.9,5.65 -1.38,16.06 -1.38,31.22l0 76.09zm434.91 0l-38.25 0 0 -21.59c-6.8,9.56 -14.8,16.72 -23.89,21.41 -9.14,4.69 -19.55,7.04 -31.34,7.04 -23.58,0 -42.23,-8.06 -55.76,-24.24 -13.6,-16.12 -20.39,-38.26 -20.39,-66.35 0,-26.65 6.92,-48.18 20.81,-64.55 13.89,-16.42 32,-24.6 54.32,-24.6 13.66,0 25.32,2.83 35.01,8.54 9.69,5.66 16.78,13.83 21.24,24.49l0 -27.25 38.25 0 0 167.1zm-37.17 -84.09c0,-17.26 -4.03,-30.74 -12.09,-40.37 -8.06,-9.68 -19.31,-14.49 -33.75,-14.49 -14.5,0 -25.87,4.99 -34.11,14.91 -8.3,9.93 -12.45,23.77 -12.45,41.39 0,17.75 3.97,31.46 11.97,41.09 8,9.68 19.31,14.5 33.87,14.5 13.77,0 24.96,-5.24 33.56,-15.7 8.67,-10.47 13,-24.25 13,-41.33zm202.78 84.09l0 -258.06 41.87 0 0 258.06 -41.87 0zm98.96 0l0 -167.1 35.97 0 0 27.43c7.64,-11.55 16.6,-19.98 26.95,-25.27 10.34,-5.29 22.92,-7.94 37.78,-7.94 12.45,0 23.03,1.98 31.82,5.89 8.72,3.98 15.58,9.81 20.51,17.57 2.95,4.57 5.06,9.93 6.38,16.06 1.26,6.07 1.92,16.78 1.92,32.06l0 101.3 -38.62 0 0 -85.77c0,-21.96 -2.64,-36.58 -8,-43.8 -5.35,-7.22 -14.86,-10.83 -28.51,-10.83 -8.91,0 -16.9,1.63 -23.88,4.94 -6.98,3.3 -12.51,7.94 -16.49,13.89 -2.82,4.03 -4.81,9.15 -5.89,15.46 -1.14,6.26 -1.68,16.24 -1.68,30.02l0 76.09 -38.26 0zm221.19 0l0 -133.54 -29.24 0 0 -33.56 29.24 0 0 -63.17 38.25 0 0 63.17 29.24 0 0 33.56 -29.24 0 0 133.54 -38.25 0zm261.37 -77.96l-133.54 0c0.96,15.64 5.59,27.86 13.95,36.64 8.3,8.78 19.43,13.17 33.33,13.17 12.33,0 22.62,-2.59 30.8,-7.76 8.24,-5.17 15.4,-13.53 21.53,-25.08l32.13 17.98c-9.39,16.85 -21,29.3 -34.89,37.54 -13.84,8.24 -30.14,12.33 -48.79,12.33 -26.83,0 -48.12,-8.18 -64,-24.48 -15.83,-16.37 -23.77,-38.14 -23.77,-65.39 0,-26.23 8.19,-47.7 24.61,-64.6 16.36,-16.85 37.41,-25.27 63.16,-25.27 26.89,0 47.88,7.7 62.92,23.1 15.04,15.34 22.56,36.93 22.56,64.61l0 7.21zm-39.7 -25.62c-1.5,-11.97 -6.08,-21.12 -13.72,-27.37 -7.64,-6.32 -18.11,-9.45 -31.34,-9.45 -12.57,0 -22.67,3.07 -30.31,9.15 -7.58,6.13 -12.94,15.33 -16.01,27.67l91.38 0zm199.65 19.49c0,-17.26 -4.03,-30.74 -12.09,-40.37 -8.06,-9.68 -19.31,-14.49 -33.74,-14.49 -14.5,0 -25.87,4.99 -34.11,14.91 -8.3,9.93 -12.46,23.77 -12.46,41.39 0,17.75 3.97,31.46 11.98,41.09 7.99,9.68 19.31,14.5 33.86,14.5 13.78,0 24.97,-5.24 33.57,-15.7 8.66,-10.47 12.99,-24.25 12.99,-41.33zm37.18 73.75c0,32.66 -6.5,55.64 -19.56,69 -13.05,13.35 -35.06,20.02 -65.98,20.02 -23.04,0 -41.45,-4.87 -55.16,-14.61 -13.78,-9.69 -20.76,-22.62 -21,-38.8l41.09 -0.18c0.6,7.22 3.97,12.75 10.04,16.54 6.14,3.79 14.74,5.66 25.75,5.66 16.36,0 28.09,-3.61 35.25,-10.77 7.22,-7.16 10.83,-19.19 10.95,-35.97l0.36 -22.14c-6.8,9.56 -14.8,16.72 -23.88,21.41 -9.15,4.69 -19.55,7.04 -31.34,7.04 -23.59,0 -42.23,-8.06 -55.77,-24.24 -13.59,-16.12 -20.39,-38.26 -20.39,-66.35 0,-26.65 6.92,-48.18 20.81,-64.55 13.9,-16.42 32.01,-24.6 54.32,-24.6 13.66,0 25.33,2.83 35.02,8.54 9.68,5.66 16.78,13.83 21.23,24.49l0 -27.25 38.26 0 0 156.76zm90.95 -130.06c4.15,-11.07 9.57,-19.25 16.3,-24.54 6.8,-5.29 15.16,-7.94 25.21,-7.94 5.41,0 10.71,0.66 15.94,1.92 5.23,1.27 10.41,3.19 15.46,5.6l-13.77 32.54c-3.31,-2.34 -6.86,-4.09 -10.65,-5.17 -3.85,-1.15 -8.13,-1.68 -12.82,-1.68 -12.75,0 -21.83,5.05 -27.37,15.21 -5.53,10.17 -8.3,27.25 -8.3,51.19l0 73.27 -38.25 0 0 -167.47 38.25 0 0 27.07zm251.99 140.4l-38.26 0 0 -21.59c-6.8,9.56 -14.8,16.72 -23.88,21.41 -9.15,4.69 -19.55,7.04 -31.34,7.04 -23.58,0 -42.23,-8.06 -55.76,-24.24 -13.6,-16.12 -20.4,-38.26 -20.4,-66.35 0,-26.65 6.92,-48.18 20.82,-64.55 13.89,-16.42 32,-24.6 54.31,-24.6 13.66,0 25.33,2.83 35.02,8.54 9.68,5.66 16.78,13.83 21.23,24.49l0 -27.25 38.26 0 0 167.1zm-37.18 -84.09c0,-17.26 -4.03,-30.74 -12.09,-40.37 -8.06,-9.68 -19.31,-14.49 -33.74,-14.49 -14.5,0 -25.87,4.99 -34.11,14.91 -8.3,9.93 -12.46,23.77 -12.46,41.39 0,17.75 3.98,31.46 11.98,41.09 8,9.68 19.31,14.5 33.86,14.5 13.78,0 24.97,-5.24 33.57,-15.7 8.66,-10.47 12.99,-24.25 12.99,-41.33zm210.06 0c0,-17.26 -4.03,-30.74 -12.08,-40.37 -8.07,-9.68 -19.31,-14.49 -33.75,-14.49 -14.5,0 -25.87,4.99 -34.11,14.91 -8.3,9.93 -12.45,23.77 -12.45,41.39 0,17.75 3.97,31.46 11.97,41.09 8,9.68 19.31,14.5 33.87,14.5 13.83,0 25.08,-5.24 33.68,-15.65 8.54,-10.4 12.87,-24.18 12.87,-41.38zm-1.08 -189.13l38.26 0 0 273.22 -38.26 0 0 -21.59c-6.79,9.56 -14.8,16.72 -23.88,21.41 -9.14,4.69 -19.55,7.04 -31.34,7.04 -23.58,0 -42.23,-8.06 -55.76,-24.24 -13.6,-16.12 -20.4,-38.26 -20.4,-66.35 0,-26.65 6.92,-48.18 20.82,-64.55 13.89,-16.42 32,-24.6 54.32,-24.6 13.65,0 25.32,2.83 35.01,8.54 9.68,5.66 16.78,13.83 21.23,24.49l0 -133.37zm222.33 190.21c0,-15.52 -4.99,-28.69 -14.98,-39.46 -9.98,-10.77 -22.19,-16.12 -36.63,-16.12 -14.32,0 -26.52,5.35 -36.57,16.12 -10.05,10.77 -15.04,23.94 -15.04,39.46 0,15.52 4.99,28.7 15.04,39.46 10.05,10.77 22.25,16.12 36.57,16.12 14.32,0 26.53,-5.35 36.58,-16.12 10.04,-10.76 15.03,-23.94 15.03,-39.46zm-143.65 -0.36c0,-12.21 2.35,-23.76 6.98,-34.59 4.64,-10.89 11.32,-20.57 19.97,-28.99 8.61,-8.37 18.47,-14.74 29.66,-19.25 11.19,-4.45 22.86,-6.68 35.07,-6.68 12.57,0 24.42,2.23 35.55,6.68 11.07,4.51 21.06,11.07 29.9,19.73 8.78,8.6 15.46,18.28 20.09,29.11 4.57,10.77 6.86,22.14 6.86,33.99 0,12.33 -2.29,23.94 -6.8,34.71 -4.51,10.83 -11.13,20.39 -19.85,28.75 -9.14,8.79 -19.31,15.46 -30.5,19.98 -11.13,4.51 -22.92,6.79 -35.25,6.79 -12.09,0 -23.76,-2.28 -34.89,-6.79 -11.19,-4.52 -21.11,-11.07 -29.84,-19.62 -8.78,-8.72 -15.46,-18.47 -20.09,-29.29 -4.57,-10.77 -6.86,-22.32 -6.86,-34.53zm453.57 -0.72c0,-17.26 -4.03,-30.74 -12.08,-40.37 -8.07,-9.68 -19.31,-14.49 -33.75,-14.49 -14.5,0 -25.87,4.99 -34.11,14.91 -8.3,9.93 -12.45,23.77 -12.45,41.39 0,17.75 3.97,31.46 11.97,41.09 8,9.68 19.31,14.5 33.87,14.5 13.83,0 25.08,-5.24 33.68,-15.65 8.54,-10.4 12.87,-24.18 12.87,-41.38zm-1.08 -189.13l38.26 0 0 273.22 -38.26 0 0 -21.59c-6.79,9.56 -14.8,16.72 -23.88,21.41 -9.14,4.69 -19.55,7.04 -31.34,7.04 -23.58,0 -42.23,-8.06 -55.76,-24.24 -13.6,-16.12 -20.4,-38.26 -20.4,-66.35 0,-26.65 6.92,-48.18 20.82,-64.55 13.89,-16.42 32,-24.6 54.32,-24.6 13.65,0 25.32,2.83 35.01,8.54 9.68,5.66 16.78,13.83 21.23,24.49l0 -133.37zm251.93 195.26l-133.54 0c0.96,15.64 5.59,27.86 13.96,36.64 8.29,8.78 19.42,13.17 33.32,13.17 12.33,0 22.62,-2.59 30.8,-7.76 8.24,-5.17 15.4,-13.53 21.53,-25.08l32.13 17.98c-9.39,16.85 -21,29.3 -34.89,37.54 -13.84,8.24 -30.14,12.33 -48.79,12.33 -26.83,0 -48.12,-8.18 -64,-24.48 -15.83,-16.37 -23.77,-38.14 -23.77,-65.39 0,-26.23 8.19,-47.7 24.61,-64.6 16.36,-16.85 37.41,-25.27 63.16,-25.27 26.89,0 47.88,7.7 62.92,23.1 15.04,15.34 22.56,36.93 22.56,64.61l0 7.21zm-39.7 -25.62c-1.5,-11.97 -6.08,-21.12 -13.72,-27.37 -7.64,-6.32 -18.11,-9.45 -31.34,-9.45 -12.57,0 -22.67,3.07 -30.31,9.15 -7.58,6.13 -12.94,15.33 -16.01,27.67l91.38 0zm275.03 -118.75l0 222.33 -41.87 0 0 -222.33 -68.58 0 0 -35.73 178.66 0 0 35.73 -68.21 0zm221.67 144.37l-133.55 0c0.97,15.64 5.6,27.86 13.96,36.64 8.3,8.78 19.43,13.17 33.32,13.17 12.33,0 22.62,-2.59 30.8,-7.76 8.25,-5.17 15.4,-13.53 21.54,-25.08l32.12 17.98c-9.38,16.85 -20.99,29.3 -34.89,37.54 -13.84,8.24 -30.13,12.33 -48.79,12.33 -26.82,0 -48.12,-8.18 -64,-24.48 -15.82,-16.37 -23.76,-38.14 -23.76,-65.39 0,-26.23 8.18,-47.7 24.6,-64.6 16.37,-16.85 37.42,-25.27 63.16,-25.27 26.9,0 47.89,7.7 62.93,23.1 15.04,15.34 22.56,36.93 22.56,64.61l0 7.21zm-39.71 -25.62c-1.5,-11.97 -6.07,-21.12 -13.71,-27.37 -7.64,-6.32 -18.11,-9.45 -31.34,-9.45 -12.58,0 -22.68,3.07 -30.32,9.15 -7.58,6.13 -12.93,15.33 -16,27.67l91.37 0zm81.27 103.58l0 -273.22 38.26 0 0 273.22 -38.26 0zm253.8 -77.96l-133.55 0c0.96,15.64 5.59,27.86 13.96,36.64 8.3,8.78 19.43,13.17 33.32,13.17 12.33,0 22.62,-2.59 30.8,-7.76 8.24,-5.17 15.4,-13.53 21.54,-25.08l32.12 17.98c-9.38,16.85 -21,29.3 -34.89,37.54 -13.84,8.24 -30.14,12.33 -48.79,12.33 -26.82,0 -48.12,-8.18 -64,-24.48 -15.82,-16.37 -23.76,-38.14 -23.76,-65.39 0,-26.23 8.18,-47.7 24.6,-64.6 16.36,-16.85 37.42,-25.27 63.16,-25.27 26.89,0 47.89,7.7 62.93,23.1 15.03,15.34 22.56,36.93 22.56,64.61l0 7.21zm-39.71 -25.62c-1.5,-11.97 -6.07,-21.12 -13.71,-27.37 -7.64,-6.32 -18.11,-9.45 -31.34,-9.45 -12.58,0 -22.68,3.07 -30.32,9.15 -7.58,6.13 -12.93,15.33 -16,27.67l91.37 0zm117.72 103.58l-38.25 0 0 -167.1 35.97 0 0 27.43c7.64,-11.67 16.3,-20.22 25.99,-25.57 9.68,-5.36 21.11,-8 34.29,-8 13.05,0 23.87,2.71 32.42,8.18 8.6,5.47 15.1,13.84 19.55,25.02 8.84,-11.55 18.22,-19.97 28.15,-25.26 9.93,-5.3 21.23,-7.94 33.93,-7.94 11,0 20.63,2.04 28.87,6.07 8.24,4.1 14.62,9.99 19.19,17.75 2.16,3.61 3.73,8 4.69,13.05 1.02,5.06 1.5,12.28 1.5,21.66l0 13.41 0 101.3 -38.25 0 0 -85.77c0,-22.44 -2.41,-37.24 -7.16,-44.34 -4.75,-7.1 -13.23,-10.65 -25.45,-10.65 -15.03,0 -25.74,4.82 -32.12,14.38 -6.43,9.56 -9.63,26.34 -9.63,50.29l0 76.09 -38.61 0 0 -85.77c0,-20.7 -2.47,-35.02 -7.46,-43.02 -5,-8 -13.66,-11.97 -25.87,-11.97 -7.52,0 -14.38,1.69 -20.57,5.12 -6.26,3.43 -11.19,8.12 -14.86,14.07 -2.35,3.91 -3.97,8.66 -4.93,14.26 -0.9,5.65 -1.39,16.06 -1.39,31.22l0 76.09zm438.53 -77.96l-133.54 0c0.96,15.64 5.59,27.86 13.96,36.64 8.29,8.78 19.42,13.17 33.32,13.17 12.33,0 22.62,-2.59 30.8,-7.76 8.24,-5.17 15.4,-13.53 21.53,-25.08l32.13 17.98c-9.39,16.85 -21,29.3 -34.89,37.54 -13.84,8.24 -30.14,12.33 -48.79,12.33 -26.83,0 -48.12,-8.18 -64,-24.48 -15.83,-16.37 -23.77,-38.14 -23.77,-65.39 0,-26.23 8.19,-47.7 24.61,-64.6 16.36,-16.85 37.41,-25.27 63.16,-25.27 26.89,0 47.88,7.7 62.92,23.1 15.04,15.34 22.56,36.93 22.56,64.61l0 7.21zm-39.7 -25.62c-1.5,-11.97 -6.08,-21.12 -13.72,-27.37 -7.64,-6.32 -18.1,-9.45 -31.34,-9.45 -12.57,0 -22.67,3.07 -30.31,9.15 -7.58,6.13 -12.94,15.33 -16.01,27.67l91.38 0zm88.49 103.58l0 -133.54 -29.24 0 0 -33.56 29.24 0 0 -63.17 38.25 0 0 63.17 29.24 0 0 33.56 -29.24 0 0 133.54 -38.25 0zm138.65 -140.4c4.15,-11.07 9.57,-19.25 16.3,-24.54 6.81,-5.29 15.16,-7.94 25.21,-7.94 5.42,0 10.71,0.66 15.94,1.92 5.24,1.27 10.41,3.19 15.46,5.6l-13.77 32.54c-3.31,-2.34 -6.86,-4.09 -10.65,-5.17 -3.85,-1.15 -8.12,-1.68 -12.82,-1.68 -12.75,0 -21.83,5.05 -27.36,15.21 -5.54,10.17 -8.31,27.25 -8.31,51.19l0 73.27 -38.25 0 0 -167.47 38.25 0 0 27.07zm91.38 -98.89c0,-6.44 2.4,-12.03 7.16,-16.78 4.75,-4.7 10.4,-7.04 17.02,-7.04 6.8,0 12.51,2.28 17.02,6.79 4.52,4.52 6.8,10.23 6.8,17.03 0,6.86 -2.28,12.57 -6.86,17.2 -4.63,4.64 -10.28,6.98 -16.96,6.98 -6.62,0 -12.27,-2.41 -17.02,-7.16 -4.76,-4.75 -7.16,-10.4 -7.16,-17.02zm5.05 239.29l0 -167.1 38.26 0 0 167.1 -38.26 0zm250.18 0l-38.25 0 0 -21.59c-6.8,9.56 -14.8,16.72 -23.89,21.41 -9.14,4.69 -19.55,7.04 -31.34,7.04 -23.58,0 -42.23,-8.06 -55.76,-24.24 -13.6,-16.12 -20.39,-38.26 -20.39,-66.35 0,-26.65 6.92,-48.18 20.81,-64.55 13.9,-16.42 32,-24.6 54.32,-24.6 13.66,0 25.32,2.83 35.01,8.54 9.69,5.66 16.78,13.83 21.24,24.49l0 -27.25 38.25 0 0 167.1zm-37.17 -84.09c0,-17.26 -4.03,-30.74 -12.09,-40.37 -8.06,-9.68 -19.31,-14.49 -33.75,-14.49 -14.5,0 -25.87,4.99 -34.11,14.91 -8.3,9.93 -12.45,23.77 -12.45,41.39 0,17.75 3.97,31.46 11.97,41.09 8,9.68 19.31,14.5 33.87,14.5 13.77,0 24.96,-5.24 33.56,-15.7 8.67,-10.47 13,-24.25 13,-41.33zm359.79 6.13l-133.55 0c0.97,15.64 5.6,27.86 13.96,36.64 8.3,8.78 19.43,13.17 33.32,13.17 12.33,0 22.62,-2.59 30.8,-7.76 8.25,-5.17 15.4,-13.53 21.54,-25.08l32.12 17.98c-9.38,16.85 -20.99,29.3 -34.89,37.54 -13.83,8.24 -30.13,12.33 -48.79,12.33 -26.82,0 -48.12,-8.18 -64,-24.48 -15.82,-16.37 -23.76,-38.14 -23.76,-65.39 0,-26.23 8.18,-47.7 24.61,-64.6 16.36,-16.85 37.41,-25.27 63.15,-25.27 26.9,0 47.89,7.7 62.93,23.1 15.04,15.34 22.56,36.93 22.56,64.61l0 7.21zm-39.71 -25.62c-1.5,-11.97 -6.07,-21.12 -13.71,-27.37 -7.64,-6.32 -18.11,-9.45 -31.34,-9.45 -12.58,0 -22.68,3.07 -30.32,9.15 -7.58,6.13 -12.93,15.33 -16,27.67l91.37 0zm233.53 -44.4l7.64 0c22.19,0 36.93,-2.58 44.21,-7.75 7.28,-5.18 10.95,-14.32 10.95,-27.5 0,-14.19 -3.91,-24.18 -11.73,-30.01 -7.82,-5.84 -22.32,-8.73 -43.43,-8.73l-7.64 0 0 73.99zm-2.53 32.49l0 115.49 -39.34 0 0 -258.06 58.47 0c17.14,0 30.44,1.14 39.94,3.37 9.44,2.23 17.5,5.89 24.18,11.07 8,6.26 14.14,14.31 18.53,24.18 4.33,9.86 6.5,20.63 6.5,32.42 0,20.63 -5,36.82 -14.98,48.55 -9.99,11.67 -24.72,18.71 -44.21,21.05l88.78 117.42 -47.28 0 -85.9 -115.49 -4.69 0zm314.19 37.53l-133.54 0c0.96,15.64 5.59,27.86 13.95,36.64 8.3,8.78 19.43,13.17 33.33,13.17 12.33,0 22.62,-2.59 30.79,-7.76 8.25,-5.17 15.41,-13.53 21.54,-25.08l32.12 17.98c-9.38,16.85 -20.99,29.3 -34.89,37.54 -13.83,8.24 -30.13,12.33 -48.78,12.33 -26.83,0 -48.12,-8.18 -64.01,-24.48 -15.82,-16.37 -23.76,-38.14 -23.76,-65.39 0,-26.23 8.18,-47.7 24.61,-64.6 16.36,-16.85 37.41,-25.27 63.16,-25.27 26.89,0 47.88,7.7 62.92,23.1 15.04,15.34 22.56,36.93 22.56,64.61l0 7.21zm-39.71 -25.62c-1.5,-11.97 -6.07,-21.12 -13.71,-27.37 -7.64,-6.32 -18.11,-9.45 -31.34,-9.45 -12.57,0 -22.68,3.07 -30.32,9.15 -7.57,6.13 -12.93,15.33 -16,27.67l91.37 0zm199.66 19.49c0,-17.26 -4.03,-30.74 -12.09,-40.37 -8.06,-9.68 -19.31,-14.49 -33.75,-14.49 -14.5,0 -25.86,4.99 -34.1,14.91 -8.31,9.93 -12.46,23.77 -12.46,41.39 0,17.75 3.97,31.46 11.97,41.09 8,9.68 19.31,14.5 33.87,14.5 13.77,0 24.96,-5.24 33.57,-15.7 8.66,-10.47 12.99,-24.25 12.99,-41.33zm37.17 73.75c0,32.66 -6.49,55.64 -19.55,69 -13.05,13.35 -35.06,20.02 -65.99,20.02 -23.03,0 -41.44,-4.87 -55.16,-14.61 -13.77,-9.69 -20.75,-22.62 -20.99,-38.8l41.08 -0.18c0.6,7.22 3.98,12.75 10.05,16.54 6.13,3.79 14.74,5.66 25.75,5.66 16.36,0 28.09,-3.61 35.25,-10.77 7.22,-7.16 10.83,-19.19 10.95,-35.97l0.36 -22.14c-6.8,9.56 -14.8,16.72 -23.88,21.41 -9.15,4.69 -19.56,7.04 -31.35,7.04 -23.58,0 -42.23,-8.06 -55.76,-24.24 -13.6,-16.12 -20.39,-38.26 -20.39,-66.35 0,-26.65 6.92,-48.18 20.81,-64.55 13.9,-16.42 32.01,-24.6 54.32,-24.6 13.66,0 25.33,2.83 35.01,8.54 9.69,5.66 16.78,13.83 21.24,24.49l0 -27.25 38.25 0 0 156.76zm49.45 -228.95c0,-6.44 2.41,-12.03 7.16,-16.78 4.75,-4.7 10.41,-7.04 17.03,-7.04 6.79,0 12.51,2.28 17.02,6.79 4.51,4.52 6.8,10.23 6.8,17.03 0,6.86 -2.29,12.57 -6.86,17.2 -4.63,4.64 -10.28,6.98 -16.96,6.98 -6.62,0 -12.28,-2.41 -17.03,-7.16 -4.75,-4.75 -7.16,-10.4 -7.16,-17.02zm5.06 239.29l0 -167.1 38.26 0 0 167.1 -38.26 0zm73.69 -30.31l31.76 -17.33c2.34,8.36 6.68,14.74 13.05,19.07 6.32,4.39 14.5,6.56 24.42,6.56 8.61,0 15.34,-1.99 20.21,-5.9 4.88,-3.97 7.28,-9.32 7.28,-16.18 0,-9.02 -8.66,-16.78 -26.04,-23.28 -5.84,-2.11 -10.41,-3.85 -13.54,-5.29 -17.87,-7.4 -30.37,-14.92 -37.47,-22.56 -7.1,-7.58 -10.65,-16.9 -10.65,-27.79 0,-14.92 5.83,-27.01 17.5,-36.34 11.74,-9.26 27.2,-13.89 46.44,-13.89 12.94,0 24.01,2.41 33.21,7.15 9.2,4.76 15.94,11.5 20.15,20.34l-27.13 18.71c-1.98,-5.3 -5.47,-9.51 -10.46,-12.63 -5,-3.13 -10.77,-4.7 -17.33,-4.7 -7.28,0 -13.12,1.75 -17.51,5.18 -4.39,3.48 -6.61,8.12 -6.61,13.89 0,8.67 9.86,16.61 29.53,23.76 6.26,2.23 11.07,4.09 14.44,5.48 15.4,6.13 26.41,12.99 33.08,20.69 6.62,7.7 9.93,17.33 9.93,28.81 0,16.73 -6.07,29.78 -18.17,39.22 -12.08,9.45 -28.75,14.2 -50.04,14.2 -16.31,0 -29.9,-3.06 -40.67,-9.14 -10.83,-6.14 -19.25,-15.46 -25.38,-28.03zm181.84 30.31l0 -133.54 -29.23 0 0 -33.56 29.23 0 0 -63.17 38.26 0 0 63.17 29.24 0 0 33.56 -29.24 0 0 133.54 -38.26 0zm138.66 -140.4c4.15,-11.07 9.57,-19.25 16.3,-24.54 6.8,-5.29 15.16,-7.94 25.21,-7.94 5.41,0 10.7,0.66 15.94,1.92 5.23,1.27 10.41,3.19 15.46,5.6l-13.77 32.54c-3.32,-2.34 -6.86,-4.09 -10.65,-5.17 -3.85,-1.15 -8.13,-1.68 -12.82,-1.68 -12.75,0 -21.83,5.05 -27.37,15.21 -5.53,10.17 -8.3,27.25 -8.3,51.19l0 73.27 -38.26 0 0 -167.47 38.26 0 0 27.07zm226 57.39c0,-15.52 -4.99,-28.69 -14.98,-39.46 -9.98,-10.77 -22.2,-16.12 -36.63,-16.12 -14.32,0 -26.53,5.35 -36.57,16.12 -10.05,10.77 -15.05,23.94 -15.05,39.46 0,15.52 5,28.7 15.05,39.46 10.04,10.77 22.25,16.12 36.57,16.12 14.32,0 26.53,-5.35 36.57,-16.12 10.05,-10.76 15.04,-23.94 15.04,-39.46zm-143.65 -0.36c0,-12.21 2.35,-23.76 6.98,-34.59 4.63,-10.89 11.31,-20.57 19.97,-28.99 8.6,-8.37 18.47,-14.74 29.66,-19.25 11.19,-4.45 22.86,-6.68 35.07,-6.68 12.57,0 24.42,2.23 35.55,6.68 11.07,4.51 21.05,11.07 29.9,19.73 8.78,8.6 15.46,18.28 20.09,29.11 4.57,10.77 6.85,22.14 6.85,33.99 0,12.33 -2.28,23.94 -6.79,34.71 -4.51,10.83 -11.13,20.39 -19.85,28.75 -9.15,8.79 -19.31,15.46 -30.5,19.98 -11.13,4.51 -22.92,6.79 -35.25,6.79 -12.09,0 -23.76,-2.28 -34.89,-6.79 -11.19,-4.52 -21.12,-11.07 -29.84,-19.62 -8.78,-8.72 -15.46,-18.47 -20.09,-29.29 -4.57,-10.77 -6.86,-22.32 -6.86,-34.53zm418.62 93.48l-115.2 -268.17 43.62 0 57.8 137.51c3.43,7.94 6.26,15.34 8.49,22.08 2.22,6.8 3.97,13.23 5.29,19.31 1.5,-6.44 3.43,-13.11 5.78,-20.09 2.34,-6.92 5.11,-14.02 8.3,-21.3l57.63 -137.51 43.36 0 -115.07 268.17z"/>
   <path class="fil3" d="M7601.78 7486.58l-133.54 0c0.96,15.64 5.59,27.86 13.95,36.64 8.3,8.78 19.43,13.17 33.33,13.17 12.33,0 22.62,-2.59 30.79,-7.76 8.25,-5.17 15.41,-13.53 21.54,-25.08l32.12 17.98c-9.38,16.85 -20.99,29.3 -34.88,37.54 -13.84,8.24 -30.14,12.33 -48.79,12.33 -26.83,0 -48.12,-8.18 -64,-24.48 -15.83,-16.37 -23.77,-38.14 -23.77,-65.39 0,-26.23 8.19,-47.7 24.61,-64.6 16.36,-16.85 37.41,-25.27 63.16,-25.27 26.89,0 47.88,7.7 62.92,23.1 15.04,15.34 22.56,36.93 22.56,64.61l0 7.21zm-39.7 -25.62c-1.51,-11.97 -6.08,-21.12 -13.72,-27.37 -7.64,-6.32 -18.11,-9.45 -31.34,-9.45 -12.57,0 -22.68,3.07 -30.32,9.15 -7.57,6.13 -12.93,15.33 -16,27.67l91.38 0zm76.21 -135.71c0,-6.44 2.41,-12.03 7.16,-16.78 4.75,-4.7 10.41,-7.04 17.03,-7.04 6.79,0 12.51,2.28 17.02,6.79 4.51,4.52 6.8,10.23 6.8,17.03 0,6.86 -2.29,12.57 -6.86,17.2 -4.63,4.64 -10.29,6.98 -16.96,6.98 -6.62,0 -12.28,-2.41 -17.03,-7.16 -4.75,-4.75 -7.16,-10.4 -7.16,-17.02zm5.06 239.29l0 -167.1 38.25 0 0 167.1 -38.25 0zm217.69 -119.46c-5.89,-6.44 -12.69,-11.37 -20.51,-14.74 -7.82,-3.43 -16.24,-5.12 -25.32,-5.12 -15.58,0 -28.09,5.06 -37.54,15.16 -9.38,10.11 -14.07,23.46 -14.07,40.19 0,17.38 4.75,31.04 14.19,40.96 9.45,9.93 22.5,14.86 39.22,14.86 9.26,0 17.57,-1.74 24.84,-5.17 7.29,-3.49 13.66,-8.72 19.19,-15.76l0 44.03c-7.03,3.97 -14.61,6.92 -22.67,8.9 -8,1.99 -16.61,3.01 -25.63,3.01 -26.23,0 -47.58,-8.36 -64.06,-25.02 -16.55,-16.66 -24.79,-38.32 -24.79,-64.85 0,-26.89 8.55,-48.6 25.63,-65.08 17.14,-16.55 39.46,-24.79 67.13,-24.79 8.66,0 16.66,0.84 23.94,2.58 7.28,1.69 14.14,4.34 20.45,7.89l0 42.95zm76.22 -47.64l0 94.2c0,16.18 3.37,27.85 10.05,34.88 6.68,7.04 17.5,10.59 32.54,10.59 15.04,0 25.87,-3.55 32.55,-10.59 6.67,-7.03 10.04,-18.7 10.04,-34.88l0 -94.2 38.26 0 0 82.71c0,31.94 -6.38,55.16 -19.19,69.59 -12.81,14.44 -33.27,21.66 -61.3,21.66 -28.51,0 -49.21,-7.16 -62.02,-21.47 -12.81,-14.32 -19.19,-37.6 -19.19,-69.78l0 -82.71 38.26 0zm176.8 167.1l0 -273.22 38.26 0 0 273.22 -38.26 0zm250.18 0l-38.26 0 0 -21.59c-6.79,9.56 -14.8,16.72 -23.88,21.41 -9.14,4.69 -19.55,7.04 -31.34,7.04 -23.58,0 -42.23,-8.06 -55.76,-24.24 -13.6,-16.12 -20.4,-38.26 -20.4,-66.35 0,-26.65 6.92,-48.18 20.82,-64.55 13.89,-16.42 32,-24.6 54.32,-24.6 13.65,0 25.32,2.83 35.01,8.54 9.68,5.66 16.78,13.83 21.23,24.49l0 -27.25 38.26 0 0 167.1zm-37.18 -84.09c0,-17.26 -4.02,-30.74 -12.08,-40.37 -8.07,-9.68 -19.31,-14.49 -33.75,-14.49 -14.5,0 -25.87,4.99 -34.11,14.91 -8.3,9.93 -12.45,23.77 -12.45,41.39 0,17.75 3.97,31.46 11.97,41.09 8,9.68 19.31,14.5 33.87,14.5 13.77,0 24.96,-5.24 33.56,-15.7 8.67,-10.47 12.99,-24.25 12.99,-41.33zm128.14 -56.31c4.15,-11.07 9.56,-19.25 16.3,-24.54 6.8,-5.29 15.16,-7.94 25.2,-7.94 5.42,0 10.71,0.66 15.94,1.92 5.24,1.27 10.41,3.19 15.46,5.6l-13.77 32.54c-3.31,-2.34 -6.86,-4.09 -10.65,-5.17 -3.85,-1.15 -8.12,-1.68 -12.81,-1.68 -12.75,0 -21.84,5.05 -27.37,15.21 -5.54,10.17 -8.3,27.25 -8.3,51.19l0 73.27 -38.26 0 0 -167.47 38.26 0 0 27.07z"/>
  </g>
  <path class="fil3" d="M545.45 6719.56l223.23 -103.18c21.28,76.69 60.22,135.31 116.83,175.45 56.21,40.56 128.48,60.63 216.41,60.63 83.51,0 149.35,-23.29 198.74,-69.46 48.98,-46.17 73.47,-108 73.47,-185.49 0,-101.18 -83.91,-191.51 -252.14,-270.61 -23.68,-11.64 -41.75,-20.47 -54.2,-25.69 -189.91,-92.75 -316.38,-176.26 -379.41,-251.34 -63.04,-75.08 -94.76,-166.62 -94.76,-274.62 0,-140.52 47.78,-254.15 142.94,-341.27 95.15,-87.12 220.42,-130.49 374.99,-130.49 126.88,0 233.27,24.5 318.79,73.48 85.52,48.98 144.54,119.24 177.46,210.78l-218.41 113.22c-34.53,-54.2 -72.27,-93.95 -113.63,-118.84 -41.35,-25.29 -88.73,-37.74 -142.13,-37.74 -75.07,0 -135.3,19.67 -179.46,59.02 -44.57,38.94 -66.65,91.54 -66.65,157.39 0,103.58 97.56,200.34 292.29,289.47 14.85,7.23 26.49,12.85 35.33,16.46 170.23,78.7 287.07,155.38 350.51,230.06 63.43,75.08 95.15,168.63 95.15,280.65 0,163 -51.39,292.68 -154.17,388.64 -102.79,95.96 -241.71,144.14 -416.76,144.14 -146.54,0 -266.59,-33.73 -360.54,-101.18 -93.55,-67.45 -154.98,-163.81 -183.88,-289.48zm1425.71 344.89l0 -1722.41 279.44 0 0 1722.41 -279.44 0zm1238.6 -1483.93l0 1483.93 -279.44 0 0 -1483.93 -457.7 0 0 -238.48 1192.44 0 0 238.48 -455.3 0zm948.74 496.25l50.99 0c148.15,0 246.52,-17.26 295.1,-51.79 48.58,-34.53 73.07,-95.56 73.07,-183.48 0,-94.76 -26.1,-161.4 -78.29,-200.35 -52.2,-38.94 -148.96,-58.22 -289.88,-58.22l-50.99 0 0 493.84zm-16.86 216.81l0 770.87 -262.58 0 0 -1722.41 390.25 0c114.42,0 203.16,7.63 266.59,22.48 63.04,14.85 116.84,39.35 161.4,73.87 53.4,41.76 94.36,95.56 123.67,161.41 28.9,65.84 43.36,137.71 43.36,216.4 0,137.72 -33.33,245.71 -99.98,324.01 -66.64,77.89 -165.01,124.86 -295.09,140.52l592.6 783.72 -315.57 0 -573.34 -770.87 -31.31 0zm1086.44 770.87l0 -1722.41 961.18 0 0 238.48 -681.74 0 0 431.21 681.74 0 0 245.71 -681.74 0 0 556.48 681.74 0 0 250.53 -961.18 0zm1829.21 67.45l-768.86 -1789.86 291.08 0 385.84 917.81c22.88,53 41.75,102.39 56.61,147.35 14.86,45.37 26.5,88.33 35.33,128.88 10.04,-42.96 22.88,-87.52 38.55,-134.1 15.65,-46.17 34.12,-93.55 55.4,-142.13l384.63 -917.81 289.48 0 -768.06 1789.86z"/>
 </g>
</svg>
